<svg width="350" height="450" viewBox="0 0 350 450" fill="none" xmlns="http://www.w3.org/2000/svg">
<rect width="350" height="450" fill="#E5E5E5"/>
<rect width="350" height="450" fill="url(#paint0_linear)"/>
<path d="M650 479.227L306.045 211.314C285.891 188.483 254.1 189.609 236.029 214.733L83.3448 429.104C69.2034 448.764 61.319 467.425 79.9206 479.899C82.4608 482.774 102.653 491.792 102.839 491.994H595.065C607.404 492.251 641.45 484.097 650 479.227Z" fill="#258DFF" fill-opacity="0.24"/>
<path d="M359 452.141L119.238 182.424C105.189 159.439 83.0281 160.573 70.4316 185.866L-36.0006 401.681C-45.8582 421.473 -51.3542 440.26 -38.3875 452.818C-36.6168 455.712 -22.5414 464.791 -22.4117 464.994H320.706C329.307 465.253 353.04 457.044 359 452.141Z" fill="#258DFF"/>
<path d="M261 84C261 97.8071 249.807 109 236 109C222.193 109 211 97.8071 211 84C211 70.1929 222.193 59 236 59C249.807 59 261 70.1929 261 84Z" fill="#258DFF"/>
<defs>
<linearGradient id="paint0_linear" x1="175" y1="0" x2="175" y2="450" gradientUnits="userSpaceOnUse">
<stop stop-color="#EEF6FF" stop-opacity="0.5"/>
<stop offset="1" stop-color="#EEF6FF"/>
</linearGradient>
</defs>
</svg>
