<svg width="350" height="450" viewBox="0 0 350 450" fill="none" xmlns="http://www.w3.org/2000/svg">
<rect width="350" height="450" rx="50" fill="url(#paint0_linear)"/>
<path d="M143.42 246.161V236.149C143.42 229.991 138.185 225 131.728 225H86.6922C80.2345 225 75 229.991 75 236.149V356.524C75 365.296 82.4576 372.407 91.6569 372.407H258.343C267.542 372.407 275 365.296 275 356.524V266.895C275 258.124 267.542 251.013 258.343 251.013H148.508C145.698 251.013 143.42 248.841 143.42 246.161V246.161Z" fill="url(#paint1_linear)"/>
<path d="M226.889 272.863H222.878C220.577 272.863 218.712 271.084 218.712 268.89V265.065C218.712 262.872 220.577 261.093 222.878 261.093H226.889C229.19 261.093 231.055 262.872 231.055 265.065V268.89C231.055 271.084 229.19 272.863 226.889 272.863Z" fill="#0078FC"/>
<path d="M242.627 272.863H238.615C236.315 272.863 234.449 271.084 234.449 268.89V265.065C234.449 262.872 236.315 261.093 238.615 261.093H242.627C244.927 261.093 246.793 262.872 246.793 265.065V268.89C246.793 271.084 244.927 272.863 242.627 272.863Z" fill="#0078FC"/>
<path d="M258.364 272.863H254.353C252.052 272.863 250.187 271.084 250.187 268.89V265.065C250.187 262.872 252.052 261.093 254.353 261.093H258.364C260.665 261.093 262.53 262.872 262.53 265.065V268.89C262.53 271.084 260.665 272.863 258.364 272.863Z" fill="#0078FC"/>
<path d="M75 338.961V356.524C75 365.296 82.4576 372.407 91.6568 372.407H258.343C267.542 372.407 275 365.296 275 356.524V338.961H75Z" fill="url(#paint2_linear)"/>
<path d="M246.875 370.923L183.632 311.951C179.643 307.026 173.352 307.269 169.777 312.688L139.563 358.93C136.764 363.171 137.578 368.013 141.259 370.704C141.762 371.324 143.383 372.452 143.42 372.496H240.605C242.885 372.496 245.024 371.922 246.875 370.923V370.923Z" fill="url(#paint3_linear)"/>
<path d="M202.799 372.364H194.738V397.868C194.738 401.807 191.664 405 187.871 405H163.916C160.123 405 157.049 401.807 157.049 397.868V372.364H147.369C140.543 372.364 136.386 364.559 140.013 358.553L167.728 312.659C171.131 307.023 179.037 307.023 182.44 312.659L210.155 358.553C213.782 364.559 209.625 372.364 202.799 372.364Z" fill="#00D047"/>
<defs>
<linearGradient id="paint0_linear" x1="175" y1="0" x2="175" y2="450" gradientUnits="userSpaceOnUse">
<stop stop-color="#EEF6FF" stop-opacity="0.5"/>
<stop offset="1" stop-color="#EEF6FF"/>
</linearGradient>
<linearGradient id="paint1_linear" x1="97.7902" y1="238.089" x2="209.082" y2="354.808" gradientUnits="userSpaceOnUse">
<stop stop-color="#258DFF" stop-opacity="0.37"/>
<stop offset="1" stop-color="#258DFF"/>
</linearGradient>
<linearGradient id="paint2_linear" x1="175" y1="353" x2="175" y2="383.979" gradientUnits="userSpaceOnUse">
<stop stop-color="#258DFF" stop-opacity="0"/>
<stop offset="1" stop-color="#258DFF"/>
</linearGradient>
<linearGradient id="paint3_linear" x1="247.648" y1="340.464" x2="164.416" y2="340.464" gradientUnits="userSpaceOnUse">
<stop stop-color="#258DFF" stop-opacity="0"/>
<stop offset="1" stop-color="#258DFF"/>
</linearGradient>
</defs>
</svg>
