<svg width="47" height="63" viewBox="0 0 47 63" fill="none" xmlns="http://www.w3.org/2000/svg">
<path d="M12.6076 13.8979C12.6076 20.9766 8.61256 22.4814 7.51892 21.4535C9.41656 30.8583 10.1257 37.704 9.61631 47.3048C9.3866 51.6549 8.69246 55.3267 12.4578 58.829C14.0658 60.3232 38.8749 60.3656 41.5416 58.723C45.212 56.4606 40.8724 30.4185 40.8724 30.4185C34.5353 24.7598 39.1146 11.6725 42.5403 2.81874C38.9548 0.672855 15.8785 4.39239 12.7574 2.45315C10.7099 1.18151 12.6076 9.38886 12.6076 13.8979Z" fill="#EBD6B8"/>
<path opacity="0.71" d="M45.5916 54.1505L45.2071 6.66016C45.2071 6.66016 37.3069 24.7174 39.1596 28.6489C40.493 31.4783 43.0198 31.1921 43.0198 31.1921" fill="url(#paint0_linear)"/>
<path d="M8.47294 1.17627C8.47294 1.17627 9.7164 11.6196 9.44174 13.7125C9.16708 15.8054 8.47294 19.0957 4.89738 19.0957H4.58277C1.00721 19.0957 0.30808 15.8107 0.0384146 13.7125C-0.231251 11.6143 1.00721 2.59097 1.00721 2.59097" fill="url(#paint1_linear)"/>
<path d="M45.6467 58.8131C45.6566 59.2953 45.5618 59.7775 45.362 60.2172C45.2621 60.4345 45.1423 60.6464 45.0025 60.8372C44.8626 61.0279 44.6978 61.2028 44.5181 61.3564C44.1585 61.6637 43.729 61.881 43.2746 61.9869C43.1598 62.0134 43.0449 62.0346 42.93 62.0452C42.8701 62.0505 42.8152 62.0558 42.7553 62.0558L42.6704 62.0611H42.5855L41.9163 62.0717L36.573 62.1724L31.2296 62.2625L25.8863 62.3366C24.1035 62.3578 22.3257 62.4002 20.5429 62.4373C18.7602 62.4691 16.9824 62.4744 15.1996 62.4426C13.4168 62.4108 11.639 62.3631 9.85625 62.289L9.18709 62.2572L9.10219 62.2519L9.01231 62.2466C8.95238 62.2413 8.88746 62.236 8.82754 62.2307C8.70269 62.2148 8.58284 62.1883 8.46299 62.1618C7.98858 62.0346 7.54413 61.7962 7.17959 61.4624C6.81504 61.1286 6.52541 60.7153 6.34563 60.2543C6.25574 60.0265 6.19082 59.7881 6.15087 59.5443C6.11592 59.3006 6.10593 59.0569 6.1259 58.8184C6.1259 58.7867 6.15087 58.7655 6.18083 58.7708C6.2058 58.7708 6.22578 58.792 6.22578 58.8184C6.24575 59.0516 6.2857 59.2794 6.35062 59.4966C6.41554 59.7139 6.50044 59.9258 6.6103 60.1166C6.72016 60.3073 6.84501 60.4928 6.98483 60.6517C7.12965 60.816 7.28446 60.959 7.45924 61.0809C7.79882 61.3299 8.18833 61.4889 8.58284 61.5472C8.68272 61.5631 8.78259 61.5737 8.88247 61.5737C8.93241 61.5737 8.98234 61.579 9.03228 61.5737H9.10719L9.19208 61.5684L9.86125 61.5366C11.644 61.4624 13.4218 61.4094 15.2046 61.3829C16.9874 61.3511 18.7652 61.3564 20.5479 61.3882C22.3307 61.4253 24.1085 61.4677 25.8913 61.4889L31.2346 61.5631L36.578 61.6531L41.9213 61.7538L42.5905 61.7644H42.6754H42.7553C42.8102 61.7644 42.8601 61.7644 42.9151 61.7591C43.0199 61.7538 43.1248 61.7379 43.2297 61.7167C43.6491 61.6372 44.0486 61.4518 44.3932 61.1816C44.568 61.0438 44.7228 60.8902 44.8676 60.7153C45.0075 60.5405 45.1273 60.3497 45.2322 60.1484C45.4319 59.7404 45.5418 59.2847 45.5568 58.8184C45.5568 58.7867 45.5817 58.7655 45.6067 58.7655C45.6267 58.7602 45.6467 58.7814 45.6467 58.8131Z" fill="#292D34"/>
<path d="M42.7153 0.592987L40.7677 0.651227L38.8202 0.704172L34.925 0.804768L31.0299 0.894776L27.1347 0.968899C25.8363 0.990077 24.538 1.03243 23.2396 1.06949L22.2658 1.09067C21.9412 1.09067 21.6166 1.09597 21.292 1.10126C20.6428 1.10126 19.9936 1.09597 19.3444 1.08008C18.046 1.04832 16.7477 1.00067 15.4493 0.926543C14.1509 0.852419 12.8525 0.757118 11.5541 0.603577C11.5242 0.598282 11.5042 0.571809 11.5092 0.545337C11.5142 0.518864 11.5292 0.502981 11.5541 0.497686C12.8525 0.344145 14.1509 0.254138 15.4493 0.17472C16.7477 0.100596 18.046 0.0476512 19.3444 0.0211786C19.9936 0.00529501 20.6428 0 21.292 0C21.6166 0 21.9412 0.00529437 22.2658 0.0105889L23.2396 0.0317675C24.538 0.0688292 25.8363 0.111185 27.1347 0.132363L31.0299 0.206487L34.925 0.296494L38.8202 0.39709L40.7677 0.450035L42.7153 0.508275C42.7453 0.508275 42.7653 0.534748 42.7653 0.56122C42.7603 0.571809 42.7403 0.592987 42.7153 0.592987Z" fill="#292D34"/>
<path d="M25.8164 58.4102C27.0217 58.4102 27.9987 57.3735 27.9987 56.0947C27.9987 54.816 27.0217 53.7793 25.8164 53.7793C24.6112 53.7793 23.6342 54.816 23.6342 56.0947C23.6342 57.3735 24.6112 58.4102 25.8164 58.4102Z" fill="#292D34"/>
<path d="M2.22565 2.49023C2.14575 4.09567 2.0209 5.69581 1.89605 7.29066L1.71128 9.68027C1.68132 10.0777 1.65136 10.475 1.62639 10.8724C1.60142 11.2698 1.57645 11.6672 1.56147 12.0593C1.54649 12.4514 1.5365 12.8488 1.55148 13.2303L1.55648 13.3733L1.56646 13.5058C1.57146 13.5482 1.57645 13.6011 1.58145 13.6488L1.60142 13.7972C1.62639 13.9932 1.65635 14.184 1.68631 14.38C1.75123 14.7668 1.82614 15.143 1.93101 15.5139C1.95598 15.604 1.98095 15.6993 2.01091 15.7894C2.03588 15.8795 2.07084 15.9696 2.1008 16.0596C2.13076 16.1497 2.16572 16.2398 2.20068 16.3246C2.24063 16.4093 2.27059 16.4994 2.31553 16.5842C2.47534 16.9233 2.66011 17.2518 2.89482 17.5379C3.12453 17.824 3.3942 18.0837 3.69882 18.2903C4.00344 18.4969 4.34302 18.6506 4.69758 18.7672C4.87236 18.8255 5.05713 18.8678 5.2419 18.9049C5.33678 18.9208 5.42667 18.942 5.52156 18.9526C5.61644 18.9632 5.71132 18.9738 5.80121 18.9897C5.70633 18.995 5.61144 19.0056 5.51656 19.0109C5.42168 19.0162 5.3268 19.0109 5.23191 19.0162C5.04215 19.0109 4.84739 18.995 4.65763 18.9632C4.2731 18.9049 3.89857 18.7831 3.53902 18.5976C3.18446 18.4122 2.85986 18.1578 2.57521 17.8611C2.54026 17.824 2.5053 17.787 2.47034 17.7446C2.43539 17.7075 2.40043 17.6651 2.37047 17.628L2.27558 17.5061C2.24562 17.4637 2.21066 17.4214 2.18569 17.379L2.09581 17.2518C2.06584 17.2094 2.04087 17.1617 2.01091 17.1193C1.95598 17.0346 1.90604 16.9392 1.8561 16.8491C1.65635 16.4835 1.50154 16.0967 1.3767 15.7046C1.24686 15.3126 1.15198 14.9099 1.07208 14.5072C1.03213 14.3058 0.99717 14.1045 0.967207 13.9032L0.947232 13.7495C0.942239 13.7018 0.932251 13.6488 0.927258 13.5958L0.907283 13.4316L0.897294 13.2726C0.877319 12.8488 0.887307 12.4461 0.902289 12.0381C0.937245 11.2274 1.00216 10.4221 1.08706 9.62199C1.17195 8.82192 1.27183 8.02715 1.38169 7.22708C1.60641 5.63753 1.87608 4.05329 2.22565 2.49023Z" fill="#7BC678"/>
<path d="M9.69147 1.0752C10.026 2.76541 10.2857 4.46622 10.5054 6.17763C10.7202 7.88904 10.8999 9.60046 10.9898 11.3331C11.0098 11.7675 11.0248 12.202 11.0298 12.6418C11.0298 12.7531 11.0298 12.859 11.0248 12.9703L11.0198 13.1345L11.0098 13.3041C11.0048 13.4154 10.9898 13.5372 10.9798 13.6538C10.9649 13.7651 10.9499 13.871 10.9299 13.977C10.895 14.1942 10.855 14.4115 10.8101 14.6234C10.7651 14.8407 10.7152 15.0526 10.6553 15.2698C10.6003 15.4818 10.5304 15.6937 10.4605 15.9057C10.3856 16.1123 10.3057 16.3189 10.2108 16.5256C10.1908 16.5786 10.1609 16.6262 10.1409 16.6739C10.1159 16.7216 10.091 16.7746 10.066 16.8223C10.0111 16.9177 9.96113 17.0183 9.9012 17.1137C9.78635 17.3045 9.65651 17.4846 9.51669 17.6542C9.23204 17.9933 8.90246 18.29 8.52793 18.5072C8.15839 18.7244 7.7539 18.8728 7.34441 18.947C7.23955 18.9629 7.13967 18.9788 7.0348 18.9894C6.92993 18.9947 6.83006 19.0106 6.72519 19.0106C6.62032 19.0106 6.52045 19.0106 6.41558 19.0106C6.31571 19.0053 6.21084 19 6.11096 18.9894C6.21084 18.9788 6.31071 18.9629 6.41558 18.9523C6.51545 18.9364 6.61533 18.9152 6.7152 18.8993C6.81508 18.8781 6.90996 18.8569 7.00983 18.8304C7.10471 18.8039 7.20459 18.7721 7.29947 18.7456C7.67899 18.6185 8.03355 18.433 8.35315 18.1999L8.41307 18.1575L8.468 18.1098L8.58286 18.0144C8.61781 17.9827 8.65277 17.9456 8.69272 17.9138C8.72768 17.882 8.76263 17.8449 8.79759 17.8078L8.89746 17.6965C8.93242 17.6594 8.96238 17.6224 8.99234 17.58C9.05726 17.5058 9.11219 17.421 9.17212 17.3415C9.40183 17.013 9.5866 16.6527 9.73641 16.2712C10.036 15.5136 10.1958 14.687 10.3057 13.8551L10.3456 13.5425C10.3556 13.4472 10.3656 13.3518 10.3656 13.2458L10.3706 13.0922V12.9385C10.3706 12.8325 10.3706 12.7319 10.3706 12.6259C10.3656 12.202 10.3506 11.7781 10.3257 11.3543C10.2358 9.64814 10.101 7.93673 9.9861 6.22002C9.87124 4.51391 9.75638 2.7972 9.69147 1.0752Z" fill="#7BC678"/>
<path d="M4.91723 2.48795C4.99713 3.38869 5.05705 4.28944 5.11698 5.18488L5.20187 6.53599L5.27178 7.88711C5.29176 8.33748 5.3367 8.78785 5.36666 9.23822C5.39662 9.68859 5.40162 10.139 5.37165 10.5893C5.34169 11.0397 5.29675 11.4901 5.22684 11.9404C5.15693 12.3908 5.06704 12.8412 4.92222 13.2916C4.91223 13.3234 4.88227 13.3339 4.8573 13.3286C4.84232 13.3234 4.82734 13.3075 4.82235 13.2916C4.67753 12.8412 4.59264 12.3908 4.51773 11.9404C4.44782 11.4901 4.39788 11.0397 4.37291 10.5893C4.34295 10.139 4.34795 9.68859 4.37791 9.23822C4.40787 8.78785 4.45281 8.33748 4.47279 7.88711L4.5427 6.53599L4.62759 5.18488C4.68752 4.28414 4.74744 3.38339 4.82734 2.48795C4.83233 2.45616 4.85231 2.43497 4.88227 2.44026C4.89725 2.44026 4.91723 2.46146 4.91723 2.48795Z" fill="#7BC678"/>
<path d="M7.24938 2.48795C7.32928 3.38869 7.38921 4.28944 7.44913 5.18488L7.53402 6.53599L7.60393 7.88711C7.62391 8.33748 7.66885 8.78785 7.69881 9.23822C7.72878 9.68859 7.73377 10.139 7.70381 10.5893C7.67385 11.0397 7.6289 11.4901 7.55899 11.9404C7.48908 12.3908 7.39919 12.8412 7.25437 13.2916C7.24439 13.3234 7.21442 13.3339 7.18946 13.3286C7.17448 13.3234 7.15949 13.3075 7.1545 13.2916C7.00968 12.8412 6.92479 12.3908 6.84989 11.9404C6.77997 11.4901 6.73004 11.0397 6.70507 10.5893C6.6751 10.139 6.6801 9.68859 6.71006 9.23822C6.74002 8.78785 6.78497 8.33748 6.80494 7.88711L6.87485 6.53599L6.95975 5.18488C7.01967 4.28414 7.07959 3.38339 7.15949 2.48795C7.16449 2.45616 7.18446 2.43497 7.21442 2.44026C7.22941 2.44026 7.24938 2.46146 7.24938 2.48795Z" fill="#7BC678"/>
<path d="M45.5468 54.182L45.4769 47.5536L45.4169 40.9252L45.357 34.2968L45.3021 27.6684L45.2072 14.4169C45.1922 12.2074 45.1772 9.99795 45.1523 7.78848C45.1323 5.57902 45.1023 3.36955 45.0873 1.16008L46.0711 1.35612C45.8514 1.97075 45.6367 2.58537 45.4219 3.20529L44.7827 5.05976C44.573 5.67969 44.3632 6.29961 44.1585 6.91953C43.9488 7.53945 43.744 8.15938 43.5393 8.7846C42.7253 11.2749 41.9462 13.7705 41.2421 16.2926C40.8926 17.5536 40.563 18.8199 40.2683 20.0916C39.9787 21.3632 39.724 22.6507 39.5892 23.9383C39.5592 24.2615 39.5342 24.5847 39.5243 24.9026C39.5143 25.2205 39.5243 25.5437 39.5592 25.851C39.5792 26.0047 39.6042 26.1583 39.6391 26.3014L39.6691 26.4074C39.6791 26.4391 39.694 26.4762 39.704 26.508C39.729 26.5716 39.764 26.6458 39.7939 26.72C39.9288 27.0061 40.0836 27.2763 40.2633 27.5306C40.4431 27.785 40.6529 28.0128 40.8826 28.2194C41.1123 28.4208 41.367 28.6009 41.6366 28.744C41.9063 28.887 42.1959 28.993 42.4906 29.0672C42.6404 29.1043 42.7902 29.1308 42.94 29.152C43.0898 29.1679 43.2446 29.1838 43.3944 29.1732H43.3994C43.4294 29.1732 43.4494 29.1944 43.4494 29.2262C43.4494 29.2526 43.4294 29.2791 43.4044 29.2791C43.0848 29.3162 42.7702 29.295 42.4556 29.2473C42.141 29.1944 41.8314 29.1043 41.5368 28.9718C41.2421 28.8394 40.9575 28.6698 40.6978 28.4685C40.4381 28.2671 40.1984 28.0287 39.9887 27.7691C39.7789 27.5094 39.5942 27.2233 39.4344 26.9266C39.3944 26.8524 39.3545 26.7783 39.3195 26.6935C39.2995 26.6511 39.2846 26.6087 39.2696 26.5663L39.2246 26.4391C39.1697 26.2696 39.1298 26.0947 39.0998 25.9252C39.0449 25.5808 39.0199 25.2417 39.0099 24.9026C38.9999 24.5635 39.0099 24.2244 39.0299 23.8906C39.0648 23.2177 39.1397 22.5554 39.2346 21.8931C39.3295 21.2307 39.4394 20.579 39.5642 19.9273C39.6891 19.2756 39.8239 18.6239 39.9687 17.9775C40.1135 17.3311 40.2633 16.6899 40.4231 16.0488C41.0623 13.4844 41.7964 10.9517 42.5855 8.4349C42.7802 7.80438 42.985 7.17916 43.1847 6.55394C43.3895 5.92871 43.5992 5.30349 43.8089 4.68357L44.1285 3.75104L44.4531 2.8185C44.6729 2.19858 44.8926 1.57866 45.1223 0.958736V0.953437C45.2272 0.677916 45.5218 0.540156 45.7815 0.651424C45.9812 0.736199 46.1061 0.942841 46.1061 1.16008C46.0911 3.36955 46.0661 5.57902 46.0412 7.78848C46.0162 9.99795 46.0012 12.2074 45.9862 14.4169L45.8913 27.6684L45.8364 34.2968L45.7765 40.9252L45.7166 47.5536L45.6466 54.182C45.6466 54.2138 45.6217 54.235 45.5967 54.235C45.5667 54.235 45.5468 54.2138 45.5468 54.182Z" fill="#ED8B9A"/>
<path d="M6.2457 18.9211L6.30063 21.1306L6.35057 23.3401L6.44545 27.7537L6.53034 32.1674L6.60025 36.581C6.62023 38.054 6.66018 39.5216 6.69513 40.9946L6.71511 42.0967C6.71511 42.4623 6.7201 42.8332 6.7251 43.1988C6.7251 43.9353 6.7201 44.6718 6.70512 45.4083C6.67516 46.8812 6.63022 48.3489 6.5603 49.8219C6.49039 51.2949 6.4005 52.7626 6.25569 54.2355C6.25069 54.2673 6.22572 54.2885 6.20076 54.2832C6.17579 54.2832 6.15581 54.262 6.15581 54.2355C6.01099 52.7626 5.9261 51.2949 5.8512 49.8219C5.78128 48.3489 5.73134 46.8812 5.70638 45.4083C5.69139 44.6718 5.6864 43.9353 5.6864 43.1988C5.6864 42.8332 5.6914 42.4623 5.69639 42.0967L5.71636 40.9946C5.75132 39.5216 5.79127 38.054 5.81124 36.581L5.88116 32.1674L5.96605 27.7537L6.06093 23.3401L6.11087 21.1306L6.1658 18.9211C6.1658 18.8894 6.19077 18.8682 6.21574 18.8682C6.22073 18.8682 6.24071 18.8894 6.2457 18.9211Z" fill="#7BC678"/>
<path d="M22.875 24.7806C22.4755 24.3568 22.0061 24.0177 21.4718 23.7633C20.9324 23.509 20.3482 23.3818 19.7339 23.3818C19.1197 23.3818 18.5304 23.509 17.9861 23.758C17.4418 24.0071 16.9674 24.3515 16.5679 24.7753C16.1684 25.1992 15.8438 25.7079 15.6091 26.2801C15.3744 26.8576 15.2545 27.4829 15.2545 28.1346V40.1303C15.2545 40.7397 15.3594 41.3278 15.5641 41.8735C15.7689 42.414 16.0485 42.9014 16.3981 43.3147C16.7477 43.728 17.1671 44.0777 17.6465 44.3479C18.041 44.5705 18.4705 44.7294 18.915 44.8142V47.5058H20.528V44.8142C20.9724 44.7294 21.4019 44.5758 21.7964 44.3479C22.2758 44.0777 22.7002 43.728 23.0498 43.3147C23.3994 42.9014 23.679 42.4193 23.8838 41.8735C24.0885 41.3278 24.1934 40.7397 24.1934 40.1303V28.1399C24.1934 27.4882 24.0735 26.8629 23.8388 26.2854C23.5991 25.7079 23.2745 25.2045 22.875 24.7806ZM18.915 36.5009V43.0286C18.3806 42.8591 17.9312 42.5464 17.5517 42.0855C17.0872 41.5185 16.8625 40.8721 16.8625 40.0986V28.1134C16.8625 27.7001 16.9374 27.308 17.0922 26.953C17.247 26.5874 17.4568 26.2642 17.7115 25.994C17.9661 25.7238 18.2758 25.5012 18.6253 25.337C18.9699 25.178 19.3444 25.0932 19.7339 25.0932C20.1235 25.0932 20.493 25.1727 20.8276 25.337C21.1721 25.5012 21.4768 25.7238 21.7315 25.994C21.9861 26.2642 22.1959 26.5874 22.3507 26.953C22.5005 27.308 22.5804 27.7001 22.5804 28.1134V40.1091C22.5804 40.8774 22.3557 41.5291 21.8913 42.0961C21.5117 42.557 21.0623 42.8697 20.528 43.0392V36.5009H18.915Z" fill="#292D34"/>
<path d="M32.3033 35.8846C32.6679 35.7733 33.0124 35.6144 33.332 35.413C33.7615 35.1428 34.146 34.7931 34.4756 34.3798C34.8052 33.9665 35.0649 33.5056 35.2447 33.0075C35.4294 32.5041 35.5243 31.9584 35.5243 31.3915V28.2018C35.5243 27.5501 35.4045 26.9301 35.1698 26.3579C34.9351 25.7963 34.6155 25.2929 34.2159 24.869C33.8164 24.4452 33.342 24.1061 32.7977 23.8676C32.2534 23.6292 31.6691 23.5073 31.0599 23.5073H27.2446V44.7436H28.8576V36.0859H30.6504L34.1111 44.7383H35.8389L32.3033 35.8846ZM33.6866 32.5518C33.5318 32.9174 33.3221 33.2353 33.0674 33.5109C32.8127 33.7811 32.5131 33.9983 32.1735 34.1467C31.8339 34.3003 31.4644 34.3745 31.0749 34.3745H28.8626V25.2134H31.0749C31.4644 25.2134 31.8339 25.2929 32.1685 25.4572C32.5131 25.6214 32.8177 25.844 33.0724 26.1142C33.3271 26.3844 33.5368 26.7076 33.6916 27.0732C33.8414 27.4282 33.9213 27.8097 33.9213 28.2018V31.3915C33.9113 31.8047 33.8364 32.1915 33.6866 32.5518Z" fill="#292D34"/>
<path d="M17.392 15.3183C17.2571 15.1753 17.0973 15.0587 16.9126 14.9792C16.7278 14.8944 16.5281 14.8521 16.3233 14.8521C16.1136 14.8521 15.9138 14.8944 15.734 14.9792C15.5543 15.064 15.3895 15.1753 15.2546 15.3183C15.1198 15.4614 15.0099 15.6309 14.935 15.827C14.8551 16.023 14.8152 16.235 14.8152 16.4522V18.9478C14.8152 19.1703 14.8551 19.3823 14.935 19.573C15.0149 19.7637 15.1198 19.9386 15.2546 20.0817C15.3895 20.2247 15.5493 20.3413 15.734 20.4208C15.9188 20.5055 16.1186 20.5479 16.3233 20.5479C16.533 20.5479 16.7328 20.5055 16.9176 20.4208C17.1023 20.336 17.2621 20.2247 17.397 20.0817C17.5318 19.9386 17.6417 19.769 17.7166 19.573C17.7965 19.377 17.8364 19.165 17.8364 18.9478V18.7729H17.1723V18.9478C17.1723 19.0696 17.1523 19.1862 17.1073 19.2975C17.0624 19.4088 17.0025 19.5041 16.9276 19.5836C16.8526 19.6631 16.7628 19.7267 16.6579 19.7743C16.553 19.822 16.4482 19.8432 16.3283 19.8432C16.2134 19.8432 16.0986 19.822 15.9987 19.7743C15.8938 19.7267 15.804 19.6631 15.729 19.5836C15.6541 19.5041 15.5942 19.4088 15.5493 19.2975C15.5043 19.1915 15.4844 19.0696 15.4844 18.9478V18.1742C15.5543 18.1477 15.6442 18.1159 15.739 18.0735C15.9088 18.0046 16.0586 17.9411 16.2134 17.8828C16.3882 17.8139 16.538 17.7556 16.6729 17.692C16.8127 17.6338 16.9076 17.5914 16.9625 17.5755H16.9675C17.5468 17.3476 17.8364 16.9714 17.8364 16.4522V16.4416C17.8364 16.2297 17.7965 16.0177 17.7166 15.827C17.6367 15.6309 17.5268 15.4614 17.392 15.3183ZM16.0686 17.1781C15.9188 17.2364 15.769 17.2947 15.6242 17.3529C15.5742 17.3741 15.5243 17.3953 15.4794 17.4112V16.4469C15.4794 16.3197 15.4993 16.2085 15.5443 16.0972C15.5892 15.9859 15.6491 15.8906 15.7241 15.8111C15.799 15.7316 15.8888 15.668 15.9937 15.6203C16.0986 15.5726 16.2085 15.5515 16.3233 15.5515C16.4432 15.5515 16.548 15.5726 16.6529 15.6203C16.7578 15.668 16.8477 15.7316 16.9226 15.8111C16.9975 15.8906 17.0574 15.9859 17.1023 16.0919C17.1473 16.1979 17.1673 16.3091 17.1673 16.4363C17.1673 16.5582 17.1323 16.6482 17.0524 16.7118C16.9475 16.8019 16.8377 16.8655 16.7378 16.9079L16.4731 17.0138C16.3483 17.0668 16.2134 17.1198 16.0686 17.1781Z" fill="#292D34"/>
<path d="M20.7179 16.5742H18.201V17.2784H20.7179V16.5742Z" fill="#292D34"/>
<path d="M23.9638 15.3183C23.829 15.1753 23.6691 15.0587 23.4844 14.9792C23.2996 14.8944 23.0998 14.8521 22.8951 14.8521C22.6854 14.8521 22.4856 14.8944 22.3058 14.9792C22.1261 15.064 21.9613 15.1753 21.8264 15.3183C21.6916 15.4614 21.5817 15.6309 21.5068 15.827C21.4269 16.023 21.387 16.235 21.387 16.4522V18.9478C21.387 19.1703 21.4269 19.3823 21.5068 19.573C21.5867 19.769 21.6916 19.9386 21.8264 20.0817C21.9613 20.2247 22.1211 20.3413 22.3058 20.4208C22.4906 20.5055 22.6904 20.5479 22.8951 20.5479C23.1048 20.5479 23.3046 20.5055 23.4894 20.4208C23.6741 20.336 23.8339 20.2247 23.9688 20.0817C24.1036 19.9386 24.2135 19.769 24.2884 19.573C24.3683 19.377 24.4082 19.165 24.4082 18.9478V18.7729H23.7441V18.9478C23.7441 19.0696 23.7241 19.1862 23.6791 19.2975C23.6342 19.4088 23.5743 19.5041 23.4994 19.5836C23.4244 19.6631 23.3346 19.7267 23.2297 19.7743C23.1248 19.822 23.0199 19.8432 22.9001 19.8432C22.7852 19.8432 22.6704 19.822 22.5705 19.7743C22.4656 19.7267 22.3757 19.6631 22.3008 19.5836C22.2259 19.5041 22.166 19.4088 22.1211 19.2975C22.0761 19.1915 22.0561 19.0696 22.0561 18.9478V16.4522C22.0561 16.325 22.0761 16.2138 22.1211 16.1025C22.166 15.9912 22.2259 15.8959 22.3008 15.8164C22.3757 15.7369 22.4656 15.6733 22.5705 15.6256C22.6754 15.5779 22.7852 15.5567 22.9001 15.5567C23.0199 15.5567 23.1248 15.5779 23.2297 15.6256C23.3346 15.6733 23.4244 15.7369 23.4994 15.8164C23.5743 15.8959 23.6342 15.9912 23.6791 16.1025C23.7241 16.2138 23.7441 16.3303 23.7441 16.4522V16.627H24.4082V16.4522C24.4082 16.2297 24.3683 16.0177 24.2884 15.8217C24.2035 15.6309 24.0986 15.4614 23.9638 15.3183Z" fill="#292D34"/>
<path d="M27.3896 15.3236C27.2647 15.1806 27.1149 15.064 26.9401 14.9792C26.7654 14.8944 26.5706 14.8521 26.3609 14.8521C26.1511 14.8521 25.9514 14.8944 25.7716 14.9792C25.5868 15.064 25.427 15.1753 25.2922 15.3183C25.1574 15.4614 25.0475 15.6309 24.9726 15.827C24.8927 16.023 24.8527 16.235 24.8527 16.4522V16.627H25.5169V16.4522C25.5169 16.325 25.5369 16.2138 25.5818 16.1025C25.6268 15.9912 25.6867 15.8959 25.7666 15.8217C25.8465 15.7422 25.9364 15.6733 26.0363 15.6256C26.1361 15.5779 26.246 15.5567 26.3609 15.5567C26.5906 15.5567 26.7704 15.6415 26.9102 15.8111C27.055 15.9912 27.1249 16.1979 27.1249 16.4575V16.9344C27.06 16.9608 26.9801 16.9926 26.8852 17.0297C26.7154 17.0986 26.5556 17.1622 26.4058 17.2205C26.256 17.2841 26.1012 17.3476 25.9464 17.4059C25.8065 17.4589 25.7017 17.5066 25.6368 17.5331C25.0625 17.7609 24.7728 18.1371 24.7728 18.6511V18.9478C24.7728 19.1703 24.8128 19.3823 24.8927 19.573C24.9726 19.769 25.0775 19.9386 25.2123 20.0817C25.3471 20.2247 25.5069 20.3413 25.6917 20.4208C25.8765 20.5055 26.0762 20.5479 26.281 20.5479C26.5057 20.5479 26.7154 20.4949 26.9152 20.3996C26.9901 20.3625 27.06 20.3201 27.1249 20.2724V20.5002H27.7891V16.4575C27.7891 16.2403 27.7541 16.0283 27.6842 15.8376C27.6093 15.6362 27.5144 15.4667 27.3896 15.3236ZM26.281 19.8432C26.1661 19.8432 26.0512 19.822 25.9514 19.7743C25.8465 19.7267 25.7566 19.6631 25.6817 19.5836C25.6068 19.5041 25.5469 19.4088 25.5019 19.2975C25.457 19.1915 25.437 19.0696 25.437 18.9478V18.6511C25.437 18.5345 25.472 18.4497 25.5519 18.3861C25.6567 18.2961 25.7666 18.2325 25.8765 18.1901C25.9314 18.1689 26.0163 18.1318 26.1361 18.0841L26.5356 17.9199C26.6855 17.8616 26.8303 17.8033 26.9751 17.745C27.025 17.7238 27.075 17.7079 27.1199 17.6867V18.9478C27.1199 19.0696 27.0999 19.1862 27.055 19.2975C27.0101 19.4088 26.9501 19.5041 26.8752 19.5836C26.8003 19.6631 26.7104 19.7267 26.6056 19.7743C26.5057 19.822 26.3958 19.8432 26.281 19.8432Z" fill="#292D34"/>
<path d="M29.9113 14.8521C29.6066 14.8626 29.332 14.9527 29.1023 15.1223V14.905H28.1085V15.6097H28.4381V20.5002H29.1023V16.4575C29.1023 16.3303 29.1223 16.2191 29.1672 16.1078C29.2121 15.9965 29.2721 15.9012 29.352 15.827C29.4319 15.7475 29.5218 15.6839 29.6216 15.6309C29.7215 15.5832 29.8314 15.562 29.9462 15.562H30.5055V14.8521H29.9163H29.9113Z" fill="#292D34"/>
<path d="M31.4344 11.6465H30.7703V18.9478C30.7703 19.1703 30.8052 19.377 30.8751 19.5677C30.945 19.7585 31.0449 19.9333 31.1698 20.0764C31.2946 20.2194 31.4394 20.336 31.6042 20.4208C31.774 20.5056 31.9538 20.5479 32.1485 20.5479H32.3133V19.8433H32.1485C32.0536 19.8433 31.9688 19.8221 31.8839 19.7744C31.799 19.7267 31.7191 19.6631 31.6542 19.5836C31.5892 19.5041 31.5343 19.4088 31.4944 19.2975C31.4544 19.1862 31.4344 19.0644 31.4344 18.9425V15.6045H32.5181V14.9051H31.4344V11.6465Z" fill="#292D34"/>
<path d="M35.5941 15.8323C35.5242 15.6362 35.4243 15.4667 35.2995 15.3236C35.1746 15.1806 35.0248 15.064 34.85 14.9792C34.6753 14.8944 34.4805 14.8521 34.2708 14.8521C34.061 14.8521 33.8613 14.8944 33.6815 14.9792C33.4967 15.064 33.3369 15.1753 33.2021 15.3183C33.0673 15.4614 32.9574 15.6309 32.8825 15.827C32.8026 16.023 32.7626 16.235 32.7626 16.4522V16.627H33.4268V16.4522C33.4268 16.325 33.4468 16.2138 33.4917 16.1025C33.5367 15.9912 33.5966 15.8959 33.6765 15.8217C33.7564 15.7422 33.8463 15.6733 33.9462 15.6256C34.046 15.5779 34.1559 15.5567 34.2708 15.5567C34.5005 15.5567 34.6802 15.6415 34.8201 15.8111C34.9649 15.9912 35.0348 16.1979 35.0348 16.4575V16.9344C34.9699 16.9608 34.89 16.9926 34.7951 17.0297C34.6253 17.0986 34.4705 17.1622 34.3157 17.2205C34.1609 17.2841 34.0061 17.3476 33.8563 17.4059C33.7164 17.4589 33.6116 17.5066 33.5467 17.5331C32.9724 17.7609 32.6827 18.1371 32.6827 18.6511V18.9478C32.6827 19.1703 32.7227 19.3823 32.8026 19.573C32.8825 19.769 32.9874 19.9386 33.1222 20.0817C33.257 20.2247 33.4168 20.3413 33.6016 20.4208C33.7864 20.5055 33.9861 20.5479 34.1909 20.5479C34.4156 20.5479 34.6253 20.4949 34.8251 20.3996C34.9 20.3625 34.9699 20.3201 35.0348 20.2724V20.5002H35.699V16.4575C35.699 16.235 35.664 16.023 35.5941 15.8323ZM33.3469 18.9478V18.6511C33.3469 18.5345 33.3819 18.4497 33.4618 18.3861C33.5666 18.2961 33.6765 18.2325 33.7864 18.1901C33.8413 18.1689 33.9262 18.1318 34.046 18.0841L34.4455 17.9199C34.5954 17.8616 34.7402 17.8033 34.885 17.745C34.9349 17.7238 34.9849 17.7079 35.0298 17.6867V18.9478C35.0298 19.0696 35.0098 19.1862 34.9649 19.2975C34.9199 19.4088 34.86 19.5041 34.7851 19.5836C34.7102 19.6631 34.6203 19.7267 34.5155 19.7743C34.4106 19.822 34.3057 19.8432 34.1859 19.8432C34.071 19.8432 33.9561 19.822 33.8563 19.7743C33.7514 19.7267 33.6615 19.6631 33.5866 19.5836C33.5117 19.5041 33.4518 19.4088 33.4068 19.2975C33.3669 19.1915 33.3469 19.0749 33.3469 18.9478Z" fill="#292D34"/>
<defs>
<linearGradient id="paint0_linear" x1="38.8782" y1="30.4038" x2="45.5913" y2="30.4038" gradientUnits="userSpaceOnUse">
<stop stop-color="#FFFFDA"/>
<stop offset="1" stop-color="#ED8B9A"/>
</linearGradient>
<linearGradient id="paint1_linear" x1="2.1477" y1="4.27821" x2="9.43356" y2="16.4097" gradientUnits="userSpaceOnUse">
<stop stop-color="white"/>
<stop offset="1" stop-color="#7BC678"/>
</linearGradient>
</defs>
</svg>
