<svg width="97" height="63" viewBox="0 0 97 63" fill="none" xmlns="http://www.w3.org/2000/svg">
<path d="M62.6076 13.8979C62.6076 20.9766 58.6126 22.4814 57.5189 21.4535C59.4166 30.8583 60.1257 37.704 59.6163 47.3048C59.3866 51.6549 58.6925 55.3267 62.4578 58.829C64.0658 60.3232 88.8749 60.3656 91.5416 58.723C95.212 56.4606 90.8724 30.4185 90.8724 30.4185C84.5353 24.7598 89.1146 11.6725 92.5403 2.81874C88.9548 0.672855 65.8785 4.39239 62.7574 2.45315C60.7099 1.18151 62.6076 9.38886 62.6076 13.8979Z" fill="#EBD6B8"/>
<path opacity="0.71" d="M95.5916 54.1505L95.2071 6.66016C95.2071 6.66016 87.3069 24.7174 89.1596 28.6489C90.493 31.4783 93.0198 31.1921 93.0198 31.1921" fill="url(#paint0_linear)"/>
<path d="M58.4729 1.17627C58.4729 1.17627 59.7164 11.6196 59.4417 13.7125C59.1671 15.8054 58.4729 19.0957 54.8974 19.0957H54.5828C51.0072 19.0957 50.3081 15.8107 50.0384 13.7125C49.7687 11.6143 51.0072 2.59097 51.0072 2.59097" fill="url(#paint1_linear)"/>
<path d="M95.6467 58.8131C95.6566 59.2953 95.5618 59.7775 95.362 60.2172C95.2621 60.4345 95.1423 60.6464 95.0025 60.8372C94.8626 61.0279 94.6978 61.2028 94.5181 61.3564C94.1585 61.6637 93.729 61.881 93.2746 61.9869C93.1598 62.0134 93.0449 62.0346 92.93 62.0452C92.8701 62.0505 92.8152 62.0558 92.7553 62.0558L92.6704 62.0611H92.5855L91.9163 62.0717L86.573 62.1724L81.2296 62.2625L75.8863 62.3366C74.1035 62.3578 72.3257 62.4002 70.5429 62.4373C68.7602 62.4691 66.9824 62.4744 65.1996 62.4426C63.4168 62.4108 61.639 62.3631 59.8563 62.289L59.1871 62.2572L59.1022 62.2519L59.0123 62.2466C58.9524 62.2413 58.8875 62.236 58.8275 62.2307C58.7027 62.2148 58.5828 62.1883 58.463 62.1618C57.9886 62.0346 57.5441 61.7962 57.1796 61.4624C56.815 61.1286 56.5254 60.7153 56.3456 60.2543C56.2557 60.0265 56.1908 59.7881 56.1509 59.5443C56.1159 59.3006 56.1059 59.0569 56.1259 58.8184C56.1259 58.7867 56.1509 58.7655 56.1808 58.7708C56.2058 58.7708 56.2258 58.792 56.2258 58.8184C56.2458 59.0516 56.2857 59.2794 56.3506 59.4966C56.4155 59.7139 56.5004 59.9258 56.6103 60.1166C56.7202 60.3073 56.845 60.4928 56.9848 60.6517C57.1297 60.816 57.2845 60.959 57.4592 61.0809C57.7988 61.3299 58.1883 61.4889 58.5828 61.5472C58.6827 61.5631 58.7826 61.5737 58.8825 61.5737C58.9324 61.5737 58.9823 61.579 59.0323 61.5737H59.1072L59.1921 61.5684L59.8612 61.5366C61.644 61.4624 63.4218 61.4094 65.2046 61.3829C66.9874 61.3511 68.7652 61.3564 70.5479 61.3882C72.3307 61.4253 74.1085 61.4677 75.8913 61.4889L81.2346 61.5631L86.578 61.6531L91.9213 61.7538L92.5905 61.7644H92.6754H92.7553C92.8102 61.7644 92.8601 61.7644 92.9151 61.7591C93.0199 61.7538 93.1248 61.7379 93.2297 61.7167C93.6491 61.6372 94.0486 61.4518 94.3932 61.1816C94.568 61.0438 94.7228 60.8902 94.8676 60.7153C95.0075 60.5405 95.1273 60.3497 95.2322 60.1484C95.4319 59.7404 95.5418 59.2847 95.5568 58.8184C95.5568 58.7867 95.5817 58.7655 95.6067 58.7655C95.6267 58.7602 95.6467 58.7814 95.6467 58.8131Z" fill="#292D34"/>
<path d="M92.7153 0.592987L90.7677 0.651227L88.8202 0.704172L84.925 0.804768L81.0299 0.894776L77.1347 0.968899C75.8363 0.990077 74.538 1.03243 73.2396 1.06949L72.2658 1.09067C71.9412 1.09067 71.6166 1.09597 71.292 1.10126C70.6428 1.10126 69.9936 1.09597 69.3444 1.08008C68.046 1.04832 66.7477 1.00067 65.4493 0.926543C64.1509 0.852419 62.8525 0.757118 61.5541 0.603577C61.5242 0.598282 61.5042 0.571809 61.5092 0.545337C61.5142 0.518864 61.5292 0.502981 61.5541 0.497686C62.8525 0.344145 64.1509 0.254138 65.4493 0.17472C66.7477 0.100596 68.046 0.0476512 69.3444 0.0211786C69.9936 0.00529501 70.6428 0 71.292 0C71.6166 0 71.9412 0.00529437 72.2658 0.0105889L73.2396 0.0317675C74.538 0.0688292 75.8363 0.111185 77.1347 0.132363L81.0299 0.206487L84.925 0.296494L88.8202 0.39709L90.7677 0.450035L92.7153 0.508275C92.7453 0.508275 92.7653 0.534748 92.7653 0.56122C92.7603 0.571809 92.7403 0.592987 92.7153 0.592987Z" fill="#292D34"/>
<path d="M75.8164 58.4102C77.0217 58.4102 77.9987 57.3735 77.9987 56.0947C77.9987 54.816 77.0217 53.7793 75.8164 53.7793C74.6112 53.7793 73.6342 54.816 73.6342 56.0947C73.6342 57.3735 74.6112 58.4102 75.8164 58.4102Z" fill="#292D34"/>
<path d="M52.2256 2.49023C52.1457 4.09567 52.0209 5.69581 51.8961 7.29066L51.7113 9.68027C51.6813 10.0777 51.6514 10.475 51.6264 10.8724C51.6014 11.2698 51.5765 11.6672 51.5615 12.0593C51.5465 12.4514 51.5365 12.8488 51.5515 13.2303L51.5565 13.3733L51.5665 13.5058C51.5715 13.5482 51.5765 13.6011 51.5814 13.6488L51.6014 13.7972C51.6264 13.9932 51.6564 14.184 51.6863 14.38C51.7512 14.7668 51.8261 15.143 51.931 15.5139C51.956 15.604 51.9809 15.6993 52.0109 15.7894C52.0359 15.8795 52.0708 15.9696 52.1008 16.0596C52.1308 16.1497 52.1657 16.2398 52.2007 16.3246C52.2406 16.4093 52.2706 16.4994 52.3155 16.5842C52.4753 16.9233 52.6601 17.2518 52.8948 17.5379C53.1245 17.824 53.3942 18.0837 53.6988 18.2903C54.0034 18.4969 54.343 18.6506 54.6976 18.7672C54.8724 18.8255 55.0571 18.8678 55.2419 18.9049C55.3368 18.9208 55.4267 18.942 55.5216 18.9526C55.6164 18.9632 55.7113 18.9738 55.8012 18.9897C55.7063 18.995 55.6114 19.0056 55.5166 19.0109C55.4217 19.0162 55.3268 19.0109 55.2319 19.0162C55.0421 19.0109 54.8474 18.995 54.6576 18.9632C54.2731 18.9049 53.8986 18.7831 53.539 18.5976C53.1845 18.4122 52.8599 18.1578 52.5752 17.8611C52.5403 17.824 52.5053 17.787 52.4703 17.7446C52.4354 17.7075 52.4004 17.6651 52.3705 17.628L52.2756 17.5061C52.2456 17.4637 52.2107 17.4214 52.1857 17.379L52.0958 17.2518C52.0658 17.2094 52.0409 17.1617 52.0109 17.1193C51.956 17.0346 51.906 16.9392 51.8561 16.8491C51.6564 16.4835 51.5015 16.0967 51.3767 15.7046C51.2469 15.3126 51.152 14.9099 51.0721 14.5072C51.0321 14.3058 50.9972 14.1045 50.9672 13.9032L50.9472 13.7495C50.9422 13.7018 50.9323 13.6488 50.9273 13.5958L50.9073 13.4316L50.8973 13.2726C50.8773 12.8488 50.8873 12.4461 50.9023 12.0381C50.9372 11.2274 51.0022 10.4221 51.0871 9.62199C51.172 8.82192 51.2718 8.02715 51.3817 7.22708C51.6064 5.63753 51.8761 4.05329 52.2256 2.49023Z" fill="#7BC678"/>
<path d="M59.6915 1.0752C60.026 2.76541 60.2857 4.46622 60.5054 6.17763C60.7202 7.88904 60.8999 9.60046 60.9898 11.3331C61.0098 11.7675 61.0248 12.202 61.0298 12.6418C61.0298 12.7531 61.0298 12.859 61.0248 12.9703L61.0198 13.1345L61.0098 13.3041C61.0048 13.4154 60.9898 13.5372 60.9798 13.6538C60.9649 13.7651 60.9499 13.871 60.9299 13.977C60.895 14.1942 60.855 14.4115 60.8101 14.6234C60.7651 14.8407 60.7152 15.0526 60.6553 15.2698C60.6003 15.4818 60.5304 15.6937 60.4605 15.9057C60.3856 16.1123 60.3057 16.3189 60.2108 16.5256C60.1908 16.5786 60.1609 16.6262 60.1409 16.6739C60.1159 16.7216 60.091 16.7746 60.066 16.8223C60.0111 16.9177 59.9611 17.0183 59.9012 17.1137C59.7863 17.3045 59.6565 17.4846 59.5167 17.6542C59.232 17.9933 58.9025 18.29 58.5279 18.5072C58.1584 18.7244 57.7539 18.8728 57.3444 18.947C57.2395 18.9629 57.1397 18.9788 57.0348 18.9894C56.9299 18.9947 56.8301 19.0106 56.7252 19.0106C56.6203 19.0106 56.5204 19.0106 56.4156 19.0106C56.3157 19.0053 56.2108 19 56.111 18.9894C56.2108 18.9788 56.3107 18.9629 56.4156 18.9523C56.5155 18.9364 56.6153 18.9152 56.7152 18.8993C56.8151 18.8781 56.91 18.8569 57.0098 18.8304C57.1047 18.8039 57.2046 18.7721 57.2995 18.7456C57.679 18.6185 58.0335 18.433 58.3531 18.1999L58.4131 18.1575L58.468 18.1098L58.5829 18.0144C58.6178 17.9827 58.6528 17.9456 58.6927 17.9138C58.7277 17.882 58.7626 17.8449 58.7976 17.8078L58.8975 17.6965C58.9324 17.6594 58.9624 17.6224 58.9923 17.58C59.0573 17.5058 59.1122 17.421 59.1721 17.3415C59.4018 17.013 59.5866 16.6527 59.7364 16.2712C60.036 15.5136 60.1958 14.687 60.3057 13.8551L60.3456 13.5425C60.3556 13.4472 60.3656 13.3518 60.3656 13.2458L60.3706 13.0922V12.9385C60.3706 12.8325 60.3706 12.7319 60.3706 12.6259C60.3656 12.202 60.3506 11.7781 60.3257 11.3543C60.2358 9.64814 60.101 7.93673 59.9861 6.22002C59.8712 4.51391 59.7564 2.7972 59.6915 1.0752Z" fill="#7BC678"/>
<path d="M54.9172 2.48795C54.9971 3.38869 55.0571 4.28944 55.117 5.18488L55.2019 6.53599L55.2718 7.88711C55.2918 8.33748 55.3367 8.78785 55.3667 9.23822C55.3966 9.68859 55.4016 10.139 55.3717 10.5893C55.3417 11.0397 55.2967 11.4901 55.2268 11.9404C55.1569 12.3908 55.067 12.8412 54.9222 13.2916C54.9122 13.3234 54.8823 13.3339 54.8573 13.3286C54.8423 13.3234 54.8273 13.3075 54.8223 13.2916C54.6775 12.8412 54.5926 12.3908 54.5177 11.9404C54.4478 11.4901 54.3979 11.0397 54.3729 10.5893C54.343 10.139 54.3479 9.68859 54.3779 9.23822C54.4079 8.78785 54.4528 8.33748 54.4728 7.88711L54.5427 6.53599L54.6276 5.18488C54.6875 4.28414 54.7474 3.38339 54.8273 2.48795C54.8323 2.45616 54.8523 2.43497 54.8823 2.44026C54.8973 2.44026 54.9172 2.46146 54.9172 2.48795Z" fill="#7BC678"/>
<path d="M57.2494 2.48795C57.3293 3.38869 57.3892 4.28944 57.4491 5.18488L57.534 6.53599L57.6039 7.88711C57.6239 8.33748 57.6689 8.78785 57.6988 9.23822C57.7288 9.68859 57.7338 10.139 57.7038 10.5893C57.6738 11.0397 57.6289 11.4901 57.559 11.9404C57.4891 12.3908 57.3992 12.8412 57.2544 13.2916C57.2444 13.3234 57.2144 13.3339 57.1895 13.3286C57.1745 13.3234 57.1595 13.3075 57.1545 13.2916C57.0097 12.8412 56.9248 12.3908 56.8499 11.9404C56.78 11.4901 56.73 11.0397 56.7051 10.5893C56.6751 10.139 56.6801 9.68859 56.7101 9.23822C56.74 8.78785 56.785 8.33748 56.8049 7.88711L56.8749 6.53599L56.9597 5.18488C57.0197 4.28414 57.0796 3.38339 57.1595 2.48795C57.1645 2.45616 57.1845 2.43497 57.2144 2.44026C57.2294 2.44026 57.2494 2.46146 57.2494 2.48795Z" fill="#7BC678"/>
<path d="M95.5468 54.182L95.4769 47.5536L95.4169 40.9252L95.357 34.2968L95.3021 27.6684L95.2072 14.4169C95.1922 12.2074 95.1772 9.99795 95.1523 7.78848C95.1323 5.57902 95.1023 3.36955 95.0873 1.16008L96.0711 1.35612C95.8514 1.97075 95.6367 2.58537 95.4219 3.20529L94.7827 5.05976C94.573 5.67969 94.3632 6.29961 94.1585 6.91953C93.9488 7.53945 93.744 8.15938 93.5393 8.7846C92.7253 11.2749 91.9462 13.7705 91.2421 16.2926C90.8926 17.5536 90.563 18.8199 90.2683 20.0916C89.9787 21.3632 89.724 22.6507 89.5892 23.9383C89.5592 24.2615 89.5342 24.5847 89.5243 24.9026C89.5143 25.2205 89.5243 25.5437 89.5592 25.851C89.5792 26.0047 89.6042 26.1583 89.6391 26.3014L89.6691 26.4074C89.6791 26.4391 89.694 26.4762 89.704 26.508C89.729 26.5716 89.764 26.6458 89.7939 26.72C89.9288 27.0061 90.0836 27.2763 90.2633 27.5306C90.4431 27.785 90.6529 28.0128 90.8826 28.2194C91.1123 28.4208 91.367 28.6009 91.6366 28.744C91.9063 28.887 92.1959 28.993 92.4906 29.0672C92.6404 29.1043 92.7902 29.1308 92.94 29.152C93.0898 29.1679 93.2446 29.1838 93.3944 29.1732H93.3994C93.4294 29.1732 93.4494 29.1944 93.4494 29.2262C93.4494 29.2526 93.4294 29.2791 93.4044 29.2791C93.0848 29.3162 92.7702 29.295 92.4556 29.2473C92.141 29.1944 91.8314 29.1043 91.5368 28.9718C91.2421 28.8394 90.9575 28.6698 90.6978 28.4685C90.4381 28.2671 90.1984 28.0287 89.9887 27.7691C89.7789 27.5094 89.5942 27.2233 89.4344 26.9266C89.3944 26.8524 89.3545 26.7783 89.3195 26.6935C89.2995 26.6511 89.2846 26.6087 89.2696 26.5663L89.2246 26.4391C89.1697 26.2696 89.1298 26.0947 89.0998 25.9252C89.0449 25.5808 89.0199 25.2417 89.0099 24.9026C88.9999 24.5635 89.0099 24.2244 89.0299 23.8906C89.0648 23.2177 89.1397 22.5554 89.2346 21.8931C89.3295 21.2307 89.4394 20.579 89.5642 19.9273C89.6891 19.2756 89.8239 18.6239 89.9687 17.9775C90.1135 17.3311 90.2633 16.6899 90.4231 16.0488C91.0623 13.4844 91.7964 10.9517 92.5855 8.4349C92.7802 7.80438 92.985 7.17916 93.1847 6.55394C93.3895 5.92871 93.5992 5.30349 93.8089 4.68357L94.1285 3.75104L94.4531 2.8185C94.6729 2.19858 94.8926 1.57866 95.1223 0.958736V0.953437C95.2272 0.677916 95.5218 0.540156 95.7815 0.651424C95.9812 0.736199 96.1061 0.942841 96.1061 1.16008C96.0911 3.36955 96.0661 5.57902 96.0412 7.78848C96.0162 9.99795 96.0012 12.2074 95.9862 14.4169L95.8913 27.6684L95.8364 34.2968L95.7765 40.9252L95.7166 47.5536L95.6466 54.182C95.6466 54.2138 95.6217 54.235 95.5967 54.235C95.5667 54.235 95.5468 54.2138 95.5468 54.182Z" fill="#ED8B9A"/>
<path d="M56.2457 18.9211L56.3006 21.1306L56.3506 23.3401L56.4454 27.7537L56.5303 32.1674L56.6003 36.581C56.6202 38.054 56.6602 39.5216 56.6951 40.9946L56.7151 42.0967C56.7151 42.4623 56.7201 42.8332 56.7251 43.1988C56.7251 43.9353 56.7201 44.6718 56.7051 45.4083C56.6752 46.8812 56.6302 48.3489 56.5603 49.8219C56.4904 51.2949 56.4005 52.7626 56.2557 54.2355C56.2507 54.2673 56.2257 54.2885 56.2008 54.2832C56.1758 54.2832 56.1558 54.262 56.1558 54.2355C56.011 52.7626 55.9261 51.2949 55.8512 49.8219C55.7813 48.3489 55.7313 46.8812 55.7064 45.4083C55.6914 44.6718 55.6864 43.9353 55.6864 43.1988C55.6864 42.8332 55.6914 42.4623 55.6964 42.0967L55.7164 40.9946C55.7513 39.5216 55.7913 38.054 55.8112 36.581L55.8812 32.1674L55.9661 27.7537L56.0609 23.3401L56.1109 21.1306L56.1658 18.9211C56.1658 18.8894 56.1908 18.8682 56.2157 18.8682C56.2207 18.8682 56.2407 18.8894 56.2457 18.9211Z" fill="#7BC678"/>
<path d="M72.875 24.7806C72.4755 24.3568 72.0061 24.0177 71.4718 23.7633C70.9324 23.509 70.3482 23.3818 69.7339 23.3818C69.1197 23.3818 68.5304 23.509 67.9861 23.758C67.4418 24.0071 66.9674 24.3515 66.5679 24.7753C66.1684 25.1992 65.8438 25.7079 65.6091 26.2801C65.3744 26.8576 65.2545 27.4829 65.2545 28.1346V40.1303C65.2545 40.7397 65.3594 41.3278 65.5641 41.8735C65.7689 42.414 66.0485 42.9014 66.3981 43.3147C66.7477 43.728 67.1671 44.0777 67.6465 44.3479C68.041 44.5705 68.4705 44.7294 68.915 44.8142V47.5058H70.528V44.8142C70.9724 44.7294 71.4019 44.5758 71.7964 44.3479C72.2758 44.0777 72.7002 43.728 73.0498 43.3147C73.3994 42.9014 73.679 42.4193 73.8838 41.8735C74.0885 41.3278 74.1934 40.7397 74.1934 40.1303V28.1399C74.1934 27.4882 74.0735 26.8629 73.8388 26.2854C73.5991 25.7079 73.2745 25.2045 72.875 24.7806ZM68.915 36.5009V43.0286C68.3806 42.8591 67.9312 42.5464 67.5517 42.0855C67.0872 41.5185 66.8625 40.8721 66.8625 40.0986V28.1134C66.8625 27.7001 66.9374 27.308 67.0922 26.953C67.247 26.5874 67.4568 26.2642 67.7115 25.994C67.9661 25.7238 68.2758 25.5012 68.6253 25.337C68.9699 25.178 69.3444 25.0932 69.7339 25.0932C70.1235 25.0932 70.493 25.1727 70.8276 25.337C71.1721 25.5012 71.4768 25.7238 71.7315 25.994C71.9861 26.2642 72.1959 26.5874 72.3507 26.953C72.5005 27.308 72.5804 27.7001 72.5804 28.1134V40.1091C72.5804 40.8774 72.3557 41.5291 71.8913 42.0961C71.5117 42.557 71.0623 42.8697 70.528 43.0392V36.5009H68.915Z" fill="#292D34"/>
<path d="M82.3033 35.8846C82.6679 35.7733 83.0124 35.6144 83.332 35.413C83.7615 35.1428 84.146 34.7931 84.4756 34.3798C84.8052 33.9665 85.0649 33.5056 85.2447 33.0075C85.4294 32.5041 85.5243 31.9584 85.5243 31.3915V28.2018C85.5243 27.5501 85.4045 26.9301 85.1698 26.3579C84.9351 25.7963 84.6155 25.2929 84.2159 24.869C83.8164 24.4452 83.342 24.1061 82.7977 23.8676C82.2534 23.6292 81.6691 23.5073 81.0599 23.5073H77.2446V44.7436H78.8576V36.0859H80.6504L84.1111 44.7383H85.8389L82.3033 35.8846ZM83.6866 32.5518C83.5318 32.9174 83.3221 33.2353 83.0674 33.5109C82.8127 33.7811 82.5131 33.9983 82.1735 34.1467C81.8339 34.3003 81.4644 34.3745 81.0749 34.3745H78.8626V25.2134H81.0749C81.4644 25.2134 81.8339 25.2929 82.1685 25.4572C82.5131 25.6214 82.8177 25.844 83.0724 26.1142C83.3271 26.3844 83.5368 26.7076 83.6916 27.0732C83.8414 27.4282 83.9213 27.8097 83.9213 28.2018V31.3915C83.9113 31.8047 83.8364 32.1915 83.6866 32.5518Z" fill="#292D34"/>
<path d="M67.392 15.3183C67.2571 15.1753 67.0973 15.0587 66.9126 14.9792C66.7278 14.8944 66.5281 14.8521 66.3233 14.8521C66.1136 14.8521 65.9138 14.8944 65.734 14.9792C65.5543 15.064 65.3895 15.1753 65.2546 15.3183C65.1198 15.4614 65.0099 15.6309 64.935 15.827C64.8551 16.023 64.8152 16.235 64.8152 16.4522V18.9478C64.8152 19.1703 64.8551 19.3823 64.935 19.573C65.0149 19.7637 65.1198 19.9386 65.2546 20.0817C65.3895 20.2247 65.5493 20.3413 65.734 20.4208C65.9188 20.5055 66.1186 20.5479 66.3233 20.5479C66.533 20.5479 66.7328 20.5055 66.9176 20.4208C67.1023 20.336 67.2621 20.2247 67.397 20.0817C67.5318 19.9386 67.6417 19.769 67.7166 19.573C67.7965 19.377 67.8364 19.165 67.8364 18.9478V18.7729H67.1723V18.9478C67.1723 19.0696 67.1523 19.1862 67.1073 19.2975C67.0624 19.4088 67.0025 19.5041 66.9276 19.5836C66.8526 19.6631 66.7628 19.7267 66.6579 19.7743C66.553 19.822 66.4482 19.8432 66.3283 19.8432C66.2134 19.8432 66.0986 19.822 65.9987 19.7743C65.8938 19.7267 65.804 19.6631 65.729 19.5836C65.6541 19.5041 65.5942 19.4088 65.5493 19.2975C65.5043 19.1915 65.4844 19.0696 65.4844 18.9478V18.1742C65.5543 18.1477 65.6442 18.1159 65.739 18.0735C65.9088 18.0046 66.0586 17.9411 66.2134 17.8828C66.3882 17.8139 66.538 17.7556 66.6729 17.692C66.8127 17.6338 66.9076 17.5914 66.9625 17.5755H66.9675C67.5468 17.3476 67.8364 16.9714 67.8364 16.4522V16.4416C67.8364 16.2297 67.7965 16.0177 67.7166 15.827C67.6367 15.6309 67.5268 15.4614 67.392 15.3183ZM66.0686 17.1781C65.9188 17.2364 65.769 17.2947 65.6242 17.3529C65.5742 17.3741 65.5243 17.3953 65.4794 17.4112V16.4469C65.4794 16.3197 65.4993 16.2085 65.5443 16.0972C65.5892 15.9859 65.6491 15.8906 65.7241 15.8111C65.799 15.7316 65.8888 15.668 65.9937 15.6203C66.0986 15.5726 66.2085 15.5515 66.3233 15.5515C66.4432 15.5515 66.548 15.5726 66.6529 15.6203C66.7578 15.668 66.8477 15.7316 66.9226 15.8111C66.9975 15.8906 67.0574 15.9859 67.1023 16.0919C67.1473 16.1979 67.1673 16.3091 67.1673 16.4363C67.1673 16.5582 67.1323 16.6482 67.0524 16.7118C66.9475 16.8019 66.8377 16.8655 66.7378 16.9079L66.4731 17.0138C66.3483 17.0668 66.2134 17.1198 66.0686 17.1781Z" fill="#292D34"/>
<path d="M70.7179 16.5742H68.201V17.2784H70.7179V16.5742Z" fill="#292D34"/>
<path d="M73.9638 15.3183C73.829 15.1753 73.6691 15.0587 73.4844 14.9792C73.2996 14.8944 73.0998 14.8521 72.8951 14.8521C72.6854 14.8521 72.4856 14.8944 72.3058 14.9792C72.1261 15.064 71.9613 15.1753 71.8264 15.3183C71.6916 15.4614 71.5817 15.6309 71.5068 15.827C71.4269 16.023 71.387 16.235 71.387 16.4522V18.9478C71.387 19.1703 71.4269 19.3823 71.5068 19.573C71.5867 19.769 71.6916 19.9386 71.8264 20.0817C71.9613 20.2247 72.1211 20.3413 72.3058 20.4208C72.4906 20.5055 72.6904 20.5479 72.8951 20.5479C73.1048 20.5479 73.3046 20.5055 73.4894 20.4208C73.6741 20.336 73.8339 20.2247 73.9688 20.0817C74.1036 19.9386 74.2135 19.769 74.2884 19.573C74.3683 19.377 74.4082 19.165 74.4082 18.9478V18.7729H73.7441V18.9478C73.7441 19.0696 73.7241 19.1862 73.6791 19.2975C73.6342 19.4088 73.5743 19.5041 73.4994 19.5836C73.4244 19.6631 73.3346 19.7267 73.2297 19.7743C73.1248 19.822 73.0199 19.8432 72.9001 19.8432C72.7852 19.8432 72.6704 19.822 72.5705 19.7743C72.4656 19.7267 72.3757 19.6631 72.3008 19.5836C72.2259 19.5041 72.166 19.4088 72.1211 19.2975C72.0761 19.1915 72.0561 19.0696 72.0561 18.9478V16.4522C72.0561 16.325 72.0761 16.2138 72.1211 16.1025C72.166 15.9912 72.2259 15.8959 72.3008 15.8164C72.3757 15.7369 72.4656 15.6733 72.5705 15.6256C72.6754 15.5779 72.7852 15.5567 72.9001 15.5567C73.0199 15.5567 73.1248 15.5779 73.2297 15.6256C73.3346 15.6733 73.4244 15.7369 73.4994 15.8164C73.5743 15.8959 73.6342 15.9912 73.6791 16.1025C73.7241 16.2138 73.7441 16.3303 73.7441 16.4522V16.627H74.4082V16.4522C74.4082 16.2297 74.3683 16.0177 74.2884 15.8217C74.2035 15.6309 74.0986 15.4614 73.9638 15.3183Z" fill="#292D34"/>
<path d="M77.3896 15.3236C77.2647 15.1806 77.1149 15.064 76.9401 14.9792C76.7654 14.8944 76.5706 14.8521 76.3609 14.8521C76.1511 14.8521 75.9514 14.8944 75.7716 14.9792C75.5868 15.064 75.427 15.1753 75.2922 15.3183C75.1574 15.4614 75.0475 15.6309 74.9726 15.827C74.8927 16.023 74.8527 16.235 74.8527 16.4522V16.627H75.5169V16.4522C75.5169 16.325 75.5369 16.2138 75.5818 16.1025C75.6268 15.9912 75.6867 15.8959 75.7666 15.8217C75.8465 15.7422 75.9364 15.6733 76.0363 15.6256C76.1361 15.5779 76.246 15.5567 76.3609 15.5567C76.5906 15.5567 76.7704 15.6415 76.9102 15.8111C77.055 15.9912 77.1249 16.1979 77.1249 16.4575V16.9344C77.06 16.9608 76.9801 16.9926 76.8852 17.0297C76.7154 17.0986 76.5556 17.1622 76.4058 17.2205C76.256 17.2841 76.1012 17.3476 75.9464 17.4059C75.8065 17.4589 75.7017 17.5066 75.6368 17.5331C75.0625 17.7609 74.7728 18.1371 74.7728 18.6511V18.9478C74.7728 19.1703 74.8128 19.3823 74.8927 19.573C74.9726 19.769 75.0775 19.9386 75.2123 20.0817C75.3471 20.2247 75.5069 20.3413 75.6917 20.4208C75.8765 20.5055 76.0762 20.5479 76.281 20.5479C76.5057 20.5479 76.7154 20.4949 76.9152 20.3996C76.9901 20.3625 77.06 20.3201 77.1249 20.2724V20.5002H77.7891V16.4575C77.7891 16.2403 77.7541 16.0283 77.6842 15.8376C77.6093 15.6362 77.5144 15.4667 77.3896 15.3236ZM76.281 19.8432C76.1661 19.8432 76.0512 19.822 75.9514 19.7743C75.8465 19.7267 75.7566 19.6631 75.6817 19.5836C75.6068 19.5041 75.5469 19.4088 75.5019 19.2975C75.457 19.1915 75.437 19.0696 75.437 18.9478V18.6511C75.437 18.5345 75.472 18.4497 75.5519 18.3861C75.6567 18.2961 75.7666 18.2325 75.8765 18.1901C75.9314 18.1689 76.0163 18.1318 76.1361 18.0841L76.5356 17.9199C76.6855 17.8616 76.8303 17.8033 76.9751 17.745C77.025 17.7238 77.075 17.7079 77.1199 17.6867V18.9478C77.1199 19.0696 77.0999 19.1862 77.055 19.2975C77.0101 19.4088 76.9501 19.5041 76.8752 19.5836C76.8003 19.6631 76.7104 19.7267 76.6056 19.7743C76.5057 19.822 76.3958 19.8432 76.281 19.8432Z" fill="#292D34"/>
<path d="M79.9113 14.8521C79.6066 14.8626 79.332 14.9527 79.1023 15.1223V14.905H78.1085V15.6097H78.4381V20.5002H79.1023V16.4575C79.1023 16.3303 79.1223 16.2191 79.1672 16.1078C79.2121 15.9965 79.2721 15.9012 79.352 15.827C79.4319 15.7475 79.5218 15.6839 79.6216 15.6309C79.7215 15.5832 79.8314 15.562 79.9462 15.562H80.5055V14.8521H79.9163H79.9113Z" fill="#292D34"/>
<path d="M81.4344 11.6465H80.7703V18.9478C80.7703 19.1703 80.8052 19.377 80.8751 19.5677C80.945 19.7585 81.0449 19.9333 81.1698 20.0764C81.2946 20.2194 81.4394 20.336 81.6042 20.4208C81.774 20.5056 81.9538 20.5479 82.1485 20.5479H82.3133V19.8433H82.1485C82.0536 19.8433 81.9688 19.8221 81.8839 19.7744C81.799 19.7267 81.7191 19.6631 81.6542 19.5836C81.5892 19.5041 81.5343 19.4088 81.4944 19.2975C81.4544 19.1862 81.4344 19.0644 81.4344 18.9425V15.6045H82.5181V14.9051H81.4344V11.6465Z" fill="#292D34"/>
<path d="M85.5941 15.8323C85.5242 15.6362 85.4243 15.4667 85.2995 15.3236C85.1746 15.1806 85.0248 15.064 84.85 14.9792C84.6753 14.8944 84.4805 14.8521 84.2708 14.8521C84.061 14.8521 83.8613 14.8944 83.6815 14.9792C83.4967 15.064 83.3369 15.1753 83.2021 15.3183C83.0673 15.4614 82.9574 15.6309 82.8825 15.827C82.8026 16.023 82.7626 16.235 82.7626 16.4522V16.627H83.4268V16.4522C83.4268 16.325 83.4468 16.2138 83.4917 16.1025C83.5367 15.9912 83.5966 15.8959 83.6765 15.8217C83.7564 15.7422 83.8463 15.6733 83.9462 15.6256C84.046 15.5779 84.1559 15.5567 84.2708 15.5567C84.5005 15.5567 84.6802 15.6415 84.8201 15.8111C84.9649 15.9912 85.0348 16.1979 85.0348 16.4575V16.9344C84.9699 16.9608 84.89 16.9926 84.7951 17.0297C84.6253 17.0986 84.4705 17.1622 84.3157 17.2205C84.1609 17.2841 84.0061 17.3476 83.8563 17.4059C83.7164 17.4589 83.6116 17.5066 83.5467 17.5331C82.9724 17.7609 82.6827 18.1371 82.6827 18.6511V18.9478C82.6827 19.1703 82.7227 19.3823 82.8026 19.573C82.8825 19.769 82.9874 19.9386 83.1222 20.0817C83.257 20.2247 83.4168 20.3413 83.6016 20.4208C83.7864 20.5055 83.9861 20.5479 84.1909 20.5479C84.4156 20.5479 84.6253 20.4949 84.8251 20.3996C84.9 20.3625 84.9699 20.3201 85.0348 20.2724V20.5002H85.699V16.4575C85.699 16.235 85.664 16.023 85.5941 15.8323ZM83.3469 18.9478V18.6511C83.3469 18.5345 83.3819 18.4497 83.4618 18.3861C83.5666 18.2961 83.6765 18.2325 83.7864 18.1901C83.8413 18.1689 83.9262 18.1318 84.046 18.0841L84.4455 17.9199C84.5954 17.8616 84.7402 17.8033 84.885 17.745C84.9349 17.7238 84.9849 17.7079 85.0298 17.6867V18.9478C85.0298 19.0696 85.0098 19.1862 84.9649 19.2975C84.9199 19.4088 84.86 19.5041 84.7851 19.5836C84.7102 19.6631 84.6203 19.7267 84.5155 19.7743C84.4106 19.822 84.3057 19.8432 84.1859 19.8432C84.071 19.8432 83.9561 19.822 83.8563 19.7743C83.7514 19.7267 83.6615 19.6631 83.5866 19.5836C83.5117 19.5041 83.4518 19.4088 83.4068 19.2975C83.3669 19.1915 83.3469 19.0749 83.3469 18.9478Z" fill="#292D34"/>
<path d="M6.16932 29.5977C5.84651 29.2627 5.46392 28.9897 5.02154 28.8036C4.57917 28.6051 4.10093 28.5059 3.61073 28.5059C3.10858 28.5059 2.63033 28.6051 2.19991 28.8036C1.76949 29.0021 1.37494 29.2627 1.05213 29.5977C0.729318 29.9327 0.466282 30.3297 0.286941 30.7888C0.0956441 31.2478 0 31.7441 0 32.2528V38.0965C0 38.6176 0.0956441 39.1139 0.286941 39.5605C0.478238 40.0072 0.729318 40.4166 1.05213 40.7516C1.37494 41.0866 1.75754 41.3596 2.19991 41.5457C2.64228 41.7442 3.12053 41.8435 3.61073 41.8435C4.11288 41.8435 4.59112 41.7442 5.0335 41.5457C5.47587 41.3472 5.85847 41.0866 6.18128 40.7516C6.5041 40.4166 6.76712 40.0196 6.94647 39.5605C7.13776 39.1015 7.23341 38.6052 7.23341 38.0965V37.6871H5.64326V38.0965C5.64326 38.3819 5.59543 38.6548 5.48782 38.9154C5.38022 39.1759 5.23675 39.3993 5.05741 39.5854C4.87807 39.7715 4.66286 39.9204 4.41178 40.032C4.1607 40.1437 3.90963 40.1933 3.62268 40.1933C3.34769 40.1933 3.07271 40.1437 2.83359 40.032C2.58251 39.9204 2.3673 39.7715 2.18796 39.5854C2.00862 39.3993 1.86515 39.1759 1.75754 38.9154C1.64994 38.6672 1.60211 38.3819 1.60211 38.0965V36.2851C1.76949 36.2231 1.98471 36.1486 2.21187 36.0494C2.61838 35.8881 2.97706 35.7392 3.3477 35.6027C3.76616 35.4414 4.12484 35.3049 4.44765 35.156C4.78242 35.0196 5.00959 34.9203 5.1411 34.8831H5.15306C6.53996 34.3496 7.23341 33.4687 7.23341 32.2528V32.228C7.23341 31.7317 7.13776 31.2354 6.94647 30.7888C6.75517 30.3297 6.49214 29.9327 6.16932 29.5977ZM3.00097 33.9526C2.64229 34.089 2.28361 34.2255 1.93688 34.362C1.81732 34.4116 1.69776 34.4612 1.59015 34.4985V32.2404C1.59015 31.9426 1.63798 31.6821 1.74558 31.4215C1.85319 31.161 1.99666 30.9376 2.176 30.7515C2.35534 30.5654 2.57055 30.4165 2.82163 30.3049C3.0727 30.1932 3.33574 30.1436 3.61073 30.1436C3.89768 30.1436 4.14875 30.1932 4.39983 30.3049C4.6509 30.4165 4.86612 30.5654 5.04546 30.7515C5.2248 30.9376 5.36827 31.161 5.47587 31.4091C5.58348 31.6573 5.6313 31.9178 5.6313 32.2156C5.6313 32.5009 5.54761 32.7119 5.35631 32.8607C5.10523 33.0717 4.8422 33.2205 4.60308 33.3198L3.96941 33.5679C3.67051 33.692 3.34769 33.8161 3.00097 33.9526Z" fill="#292D34"/>
<path d="M14.1322 32.5381H8.10632V34.1882H14.1322V32.5381Z" fill="#292D34"/>
<path d="M21.9035 29.5977C21.5807 29.2627 21.1981 28.9897 20.7557 28.8036C20.3133 28.6051 19.8351 28.5059 19.3449 28.5059C18.8427 28.5059 18.3645 28.6051 17.9341 28.8036C17.5036 29.0021 17.1091 29.2627 16.7863 29.5977C16.4635 29.9327 16.2004 30.3297 16.0211 30.7888C15.8298 31.2478 15.7341 31.7441 15.7341 32.2528V38.0965C15.7341 38.6176 15.8298 39.1139 16.0211 39.5606C16.2124 40.0196 16.4635 40.4166 16.7863 40.7516C17.1091 41.0866 17.4917 41.3596 17.9341 41.5457C18.3764 41.7442 18.8547 41.8435 19.3449 41.8435C19.847 41.8435 20.3253 41.7442 20.7676 41.5457C21.21 41.3472 21.5926 41.0866 21.9154 40.7516C22.2382 40.4166 22.5013 40.0196 22.6806 39.5606C22.8719 39.1015 22.9676 38.6052 22.9676 38.0965V37.6871H21.3774V38.0965C21.3774 38.3819 21.3296 38.6548 21.222 38.9154C21.1144 39.1759 20.9709 39.3993 20.7916 39.5854C20.6122 39.7715 20.397 39.9204 20.1459 40.032C19.8948 40.1437 19.6438 40.1933 19.3568 40.1933C19.0818 40.1933 18.8068 40.1437 18.5677 40.032C18.3166 39.9204 18.1014 39.7715 17.9221 39.5854C17.7428 39.3993 17.5993 39.1759 17.4917 38.9154C17.3841 38.6673 17.3362 38.3819 17.3362 38.0965V32.2528C17.3362 31.955 17.3841 31.6945 17.4917 31.4339C17.5993 31.1734 17.7428 30.9501 17.9221 30.7639C18.1014 30.5778 18.3166 30.429 18.5677 30.3173C18.8188 30.2056 19.0818 30.156 19.3568 30.156C19.6438 30.156 19.8948 30.2056 20.1459 30.3173C20.397 30.429 20.6122 30.5778 20.7916 30.7639C20.9709 30.9501 21.1144 31.1734 21.222 31.4339C21.3296 31.6945 21.3774 31.9674 21.3774 32.2528V32.6622H22.9676V32.2528C22.9676 31.7317 22.8719 31.2354 22.6806 30.7764C22.4774 30.3297 22.2263 29.9327 21.9035 29.5977Z" fill="#292D34"/>
<path d="M30.1053 29.6101C29.8064 29.2751 29.4477 29.0021 29.0293 28.8036C28.6108 28.6051 28.1445 28.5059 27.6424 28.5059C27.1402 28.5059 26.662 28.6051 26.2315 28.8036C25.7892 29.0021 25.4066 29.2627 25.0838 29.5977C24.761 29.9327 24.4979 30.3297 24.3186 30.7888C24.1273 31.2478 24.0316 31.7441 24.0316 32.2528V32.6622H25.6218V32.2528C25.6218 31.955 25.6696 31.6945 25.7772 31.4339C25.8848 31.1734 26.0283 30.9501 26.2196 30.7764C26.4109 30.5902 26.6261 30.429 26.8652 30.3173C27.1044 30.2056 27.3674 30.156 27.6424 30.156C28.1924 30.156 28.6228 30.3545 28.9575 30.7515C29.3043 31.1734 29.4717 31.6573 29.4717 32.2652V33.3818C29.3162 33.4439 29.1249 33.5183 28.8978 33.6052C28.4913 33.7665 28.1087 33.9153 27.75 34.0518C27.3913 34.2007 27.0207 34.3496 26.65 34.4861C26.3152 34.6101 26.0642 34.7218 25.9087 34.7838C24.5338 35.3173 23.8403 36.1982 23.8403 37.4017V38.0965C23.8403 38.6176 23.936 39.1139 24.1273 39.5606C24.3186 40.0196 24.5697 40.4166 24.8925 40.7516C25.2153 41.0866 25.5979 41.3596 26.0403 41.5457C26.4826 41.7442 26.9609 41.8435 27.4511 41.8435C27.9891 41.8435 28.4913 41.7194 28.9695 41.4961C29.1488 41.4092 29.3162 41.31 29.4717 41.1983V41.7318H31.0618V32.2652C31.0618 31.7565 30.9781 31.2602 30.8107 30.8136C30.6314 30.3421 30.4042 29.9451 30.1053 29.6101ZM27.4511 40.1933C27.1761 40.1933 26.9011 40.1437 26.662 40.032C26.4109 39.9204 26.1957 39.7715 26.0163 39.5854C25.837 39.3993 25.6935 39.1759 25.5859 38.9154C25.4783 38.6673 25.4305 38.3819 25.4305 38.0965V37.4017C25.4305 37.1288 25.5142 36.9303 25.7055 36.7814C25.9566 36.5705 26.2196 36.4216 26.4826 36.3223C26.6141 36.2727 26.8174 36.1858 27.1044 36.0742L28.0608 35.6896C28.4195 35.5531 28.7662 35.4166 29.113 35.2801C29.2325 35.2305 29.3521 35.1933 29.4597 35.1436V38.0965C29.4597 38.3819 29.4119 38.6548 29.3043 38.9154C29.1967 39.1759 29.0532 39.3993 28.8739 39.5854C28.6945 39.7715 28.4793 39.9204 28.2282 40.032C27.9891 40.1437 27.7261 40.1933 27.4511 40.1933Z" fill="#292D34"/>
<path d="M36.1431 28.5059C35.4138 28.5307 34.7562 28.7416 34.2063 29.1386V28.6299H31.827V30.2801H32.6161V41.7318H34.2063V32.2652C34.2063 31.9674 34.2541 31.7069 34.3617 31.4463C34.4693 31.1858 34.6128 30.9625 34.8041 30.7888C34.9954 30.6027 35.2106 30.4538 35.4497 30.3297C35.6888 30.218 35.9518 30.1684 36.2268 30.1684H37.5659V28.5059H36.1551H36.1431Z" fill="#292D34"/>
<path d="M39.7897 21H38.1996V38.0969C38.1996 38.618 38.2833 39.1019 38.4507 39.5486C38.618 39.9952 38.8572 40.4047 39.1561 40.7396C39.455 41.0746 39.8017 41.3476 40.1963 41.5461C40.6028 41.7446 41.0332 41.8439 41.4995 41.8439H41.894V40.1937H41.4995C41.2723 40.1937 41.069 40.1441 40.8658 40.0324C40.6625 39.9208 40.4712 39.7719 40.3158 39.5858C40.1604 39.3997 40.0289 39.1764 39.9332 38.9158C39.8376 38.6553 39.7897 38.3699 39.7897 38.0845V30.2681H42.3842V28.6303H39.7897V21Z" fill="#292D34"/>
<path d="M49.7489 30.8012C49.5815 30.3421 49.3424 29.9451 49.0435 29.6101C48.7446 29.2751 48.386 29.0021 47.9675 28.8036C47.549 28.6051 47.0827 28.5059 46.5806 28.5059C46.0784 28.5059 45.6002 28.6051 45.1698 28.8036C44.7274 29.0021 44.3448 29.2627 44.022 29.5977C43.6992 29.9327 43.4361 30.3297 43.2568 30.7888C43.0655 31.2478 42.9699 31.7441 42.9699 32.2528V32.6622H44.56V32.2528C44.56 31.955 44.6078 31.6945 44.7154 31.4339C44.823 31.1734 44.9665 30.9501 45.1578 30.7764C45.3491 30.5902 45.5643 30.429 45.8034 30.3173C46.0426 30.2056 46.3056 30.156 46.5806 30.156C47.1306 30.156 47.561 30.3545 47.8957 30.7515C48.2425 31.1734 48.4099 31.6573 48.4099 32.2652V33.3818C48.2544 33.4439 48.0631 33.5183 47.836 33.6052C47.4295 33.7665 47.0588 33.9153 46.6882 34.0518C46.3176 34.2007 45.9469 34.3496 45.5882 34.4861C45.2535 34.6101 45.0024 34.7218 44.847 34.7838C43.472 35.3173 42.7786 36.1982 42.7786 37.4017V38.0965C42.7786 38.6176 42.8742 39.1139 43.0655 39.5606C43.2568 40.0196 43.5079 40.4166 43.8307 40.7516C44.1535 41.0866 44.5361 41.3596 44.9785 41.5457C45.4209 41.7442 45.8991 41.8435 46.3893 41.8435C46.9273 41.8435 47.4295 41.7194 47.9077 41.4961C48.087 41.4092 48.2544 41.31 48.4099 41.1983V41.7318H50V32.2652C50 31.7441 49.9163 31.2478 49.7489 30.8012ZM44.3687 38.0965V37.4017C44.3687 37.1288 44.4524 36.9303 44.6437 36.7814C44.8948 36.5705 45.1578 36.4216 45.4208 36.3223C45.5524 36.2727 45.7556 36.1858 46.0426 36.0742L46.999 35.6896C47.3577 35.5531 47.7045 35.4166 48.0512 35.2801C48.1707 35.2305 48.2903 35.1933 48.3979 35.1436V38.0965C48.3979 38.3819 48.3501 38.6548 48.2425 38.9154C48.1349 39.1759 47.9914 39.3993 47.8121 39.5854C47.6327 39.7715 47.4175 39.9204 47.1664 40.032C46.9154 40.1437 46.6643 40.1933 46.3773 40.1933C46.1023 40.1933 45.8274 40.1437 45.5882 40.032C45.3372 39.9204 45.1219 39.7715 44.9426 39.5854C44.7633 39.3993 44.6198 39.1759 44.5122 38.9154C44.4165 38.6673 44.3687 38.3943 44.3687 38.0965Z" fill="#292D34"/>
<defs>
<linearGradient id="paint0_linear" x1="88.8782" y1="30.4038" x2="95.5913" y2="30.4038" gradientUnits="userSpaceOnUse">
<stop stop-color="#FFFFDA"/>
<stop offset="1" stop-color="#ED8B9A"/>
</linearGradient>
<linearGradient id="paint1_linear" x1="52.1477" y1="4.27821" x2="59.4336" y2="16.4097" gradientUnits="userSpaceOnUse">
<stop stop-color="white"/>
<stop offset="1" stop-color="#7BC678"/>
</linearGradient>
</defs>
</svg>
