<svg width="512" height="512" viewBox="0 0 512 512" fill="none" xmlns="http://www.w3.org/2000/svg">
<g clip-path="url(#clip0)">
<path d="M492 236H68.4419L138.606 166.176C146.435 158.384 146.465 145.721 138.673 137.892C130.881 130.062 118.217 130.033 110.388 137.824L5.88389 241.824C5.87689 241.83 5.87189 241.837 5.86589 241.843C-1.94311 249.635 -1.96811 262.339 5.86389 270.157C5.87089 270.163 5.87589 270.17 5.88189 270.176L110.386 374.176C118.214 381.966 130.878 381.939 138.671 374.108C146.463 366.279 146.433 353.616 138.604 345.824L68.4419 276H492C503.046 276 512 267.046 512 256C512 244.954 503.046 236 492 236Z" fill="#292D34"/>
</g>
<defs>
<clipPath id="clip0">
<rect width="512" height="512" fill="white"/>
</clipPath>
</defs>
</svg>
