<svg width="50" height="50" viewBox="0 0 50 50" fill="none" xmlns="http://www.w3.org/2000/svg">
<path d="M46.1266 1.36719H3.87344C1.73759 1.36719 0 3.10478 0 5.24063V35.9444C0 38.0802 1.73759 39.8178 3.87344 39.8178H19.6659V45.6017H16.1266C15.3099 45.6017 14.6477 46.2639 14.6477 47.0806C14.6477 47.8973 15.3099 48.5596 16.1266 48.5596H33.873C34.6897 48.5596 35.3519 47.8973 35.3519 47.0806C35.3519 46.2639 34.6897 45.6017 33.873 45.6017H30.3333V39.8178H46.1266C48.2624 39.8178 50 38.0802 50 35.9444V5.24063C50 3.10478 48.2624 1.36719 46.1266 1.36719V1.36719ZM3.87344 4.3251H46.1266C46.6316 4.3251 47.0421 4.73557 47.0421 5.24063V30.3532H2.95792V5.24063C2.95792 4.73557 3.36838 4.3251 3.87344 4.3251ZM27.3754 45.6017H22.6238V39.8178H27.3754V45.6017ZM46.1266 36.8599H3.87344C3.36838 36.8599 2.95792 36.4491 2.95792 35.9444V33.3107H47.0421V35.9444C47.0421 36.4494 46.6316 36.8599 46.1266 36.8599Z" fill="white"/>
<path d="M21.6766 22.967V25.3233C21.6766 26.1401 22.3388 26.8023 23.1555 26.8023H32.8963C33.7131 26.8023 34.3753 26.1401 34.3753 25.3233V15.5825C34.3753 14.7658 33.7131 14.1036 32.8963 14.1036H30.5404C29.8511 10.6562 26.802 8.05078 23.1551 8.05078C19.0025 8.05078 15.6238 11.4295 15.6238 15.5825C15.6238 19.229 18.2296 22.2781 21.6766 22.967ZM31.4178 23.8444H24.6345V22.967C27.6031 22.3738 29.9468 20.0297 30.5404 17.0611H31.4178V23.8444ZM24.6341 19.9095V17.0611H27.4825C27.0251 18.3951 25.9681 19.4521 24.6341 19.9095ZM23.1555 11.0083C25.1598 11.0083 26.8661 12.3053 27.4825 14.1036H23.1555C22.3388 14.1036 21.6766 14.7654 21.6766 15.5821V19.9091C19.8783 19.2931 18.5817 17.5868 18.5817 15.5821C18.5817 13.0602 20.6332 11.0083 23.1555 11.0083Z" fill="white"/>
</svg>
