<svg width="512" height="512" viewBox="0 0 512 512" fill="none" xmlns="http://www.w3.org/2000/svg">
<path d="M468.548 23.0042C437.873 -7.66806 388.141 -7.66806 357.466 23.0042L46.0664 334.376C43.9323 336.51 42.3914 339.155 41.5869 342.06L0.636932 489.885C-1.04716 495.946 0.664203 502.436 5.10965 506.888C9.56192 511.333 16.0528 513.044 22.1142 511.367L169.953 470.414C172.857 469.61 175.503 468.069 177.637 465.935L489.03 154.556C519.657 123.863 519.657 74.1769 489.03 43.4842L468.548 23.0042ZM84.0982 345.721L338.955 90.8799L421.148 173.066L166.284 427.906L84.0982 345.721ZM67.68 378.663L133.346 444.33L42.5142 469.494L67.68 378.663ZM464.348 129.876L445.836 148.386L363.637 66.1935L382.155 47.6838C399.193 30.6467 426.821 30.6467 443.859 47.6838L464.348 68.1638C481.359 85.2213 481.359 112.826 464.348 129.876V129.876Z" fill="#9BB2C7"/>
</svg>
