<svg width="657" height="657" viewBox="0 0 657 657" fill="none" xmlns="http://www.w3.org/2000/svg">
<path d="M540.645 186.935L451.307 259.625L415.641 217.857C412.506 214.187 407.001 213.753 403.331 216.888C399.669 220.02 399.236 225.528 402.367 229.191L443.569 277.448C446.645 281.051 452.037 281.539 455.715 278.549L551.663 200.483C555.403 197.437 555.969 191.944 552.924 188.204C549.886 184.463 544.385 183.897 540.645 186.942V186.935Z" fill="#76EA9E"/>
<path d="M477.579 74.3862C393.719 74.3628 324.395 139.752 319.526 223.471H78.5853C49.1392 223.514 24.2807 245.378 20.4857 274.582C20.0172 275.913 19.8884 277.334 20.0914 278.728C20.0289 279.837 19.9899 280.954 19.9899 282.074V515.769C19.9743 529.437 24.7648 542.673 33.5143 553.175C34.1937 554.476 35.1893 555.584 36.4152 556.4C47.437 567.883 62.6715 574.376 78.5853 574.372H427.706C443.608 574.376 458.823 567.898 469.837 556.439C470.305 556.127 470.739 555.776 471.145 555.385C471.793 554.745 472.343 554.003 472.761 553.195C481.526 542.692 486.321 529.445 486.305 515.769V390.847C569.575 386.299 635.929 317.123 635.929 232.736C635.831 145.319 564.992 74.4838 477.579 74.3862ZM78.5853 240.927H319.448C321.326 278.51 336.588 314.171 362.469 341.478C366.334 345.569 370.406 349.458 374.678 353.12L276.598 436.309C263.129 447.791 243.311 447.803 229.841 436.328L38.2307 274.082C42.0686 254.826 58.9546 240.958 78.5853 240.927ZM78.5853 556.916C69.6796 556.92 61.016 554.027 53.8985 548.666L53.5 548.039C55.7293 545.817 55.18 552.038 54.3483 549C41.5 534.5 48.0492 539.265 45 538.5C41.9469 537.735 46.1669 534.224 44 536.5L42.4434 535.411C39.156 529.387 37.4342 522.632 37.442 515.769V296.286L218.561 449.65C238.54 466.661 267.919 466.649 287.886 449.618L388.862 363.982C412.557 380.099 440.231 389.395 468.849 390.851V515.769C468.861 522.656 467.127 529.437 463.812 535.477V538.5C460.423 535.123 463.408 539.146 460 542.5C456.588 545.85 453.685 542.053 457 545.5L452.338 548.705C445.236 554.042 436.588 556.924 427.706 556.916H78.5853ZM477.579 373.629C447.582 373.751 418.343 364.197 394.211 346.378C393.844 346.054 393.453 345.761 393.047 345.495C386.644 340.67 380.659 335.313 375.158 329.488C329.255 280.899 323.813 206.753 362.122 151.976C400.43 97.2106 471.953 76.8889 533.336 103.34C594.719 129.796 629.065 195.739 615.564 261.198C602.059 326.657 544.42 373.626 477.579 373.629Z" fill="#76EA9E"/>
</svg>
