<svg width="50" height="50" viewBox="0 0 50 50" fill="none" xmlns="http://www.w3.org/2000/svg">
<g clip-path="url(#clip0)">
<path d="M43.4042 32.8658C43.6055 31.7607 43.7083 30.636 43.7083 29.5085C43.7083 19.4385 35.7099 11.2029 25.7323 10.8167V7.45945H26.7616C29.4995 7.45945 31.727 5.23206 31.727 2.4942V1.12307C31.727 0.50382 31.2232 0 30.6039 0H29.2328C26.9179 0 24.9681 1.59252 24.421 3.73944C23.5127 2.75202 22.2111 2.13189 20.767 2.13189H19.3958C18.7766 2.13189 18.2728 2.63571 18.2728 3.25496V4.62608C18.2728 7.36394 20.5003 9.59134 23.2381 9.59134H24.2674V10.8169C12.8271 11.2395 4.55428 21.6588 6.59554 32.8658C5.23438 32.9223 4.12146 34.0928 4.12146 35.4598C4.12146 36.6713 4.98183 37.7374 6.1675 37.9949L7.57222 38.2994C6.40335 39.2103 6.2261 40.9723 7.28911 42.0354C7.56461 42.3108 7.89001 42.506 8.2364 42.622C8.0528 42.9691 7.95514 43.3578 7.95514 43.7618C7.95514 44.4139 8.20906 45.027 8.6701 45.4881C9.12587 45.9438 9.73009 46.1968 10.3738 46.2026C10.3798 46.8198 10.6172 47.4352 11.0871 47.905C11.8542 48.6723 13.017 48.8295 13.9518 48.3386C14.2719 49.3117 15.2555 50 16.2662 50C16.8913 50 17.5167 49.7619 17.9926 49.286L19.7959 47.4828C21.4795 47.9697 23.2278 48.2169 24.9999 48.2169C26.772 48.2169 28.5203 47.9697 30.2038 47.4828L32.0072 49.286C32.9591 50.2379 34.5079 50.2379 35.4598 49.286C35.7307 49.0151 35.9295 48.6915 36.0479 48.3385C36.9806 48.8286 38.1464 48.6712 38.9126 47.9048C39.3824 47.435 39.6199 46.8196 39.6259 46.2024C40.2696 46.1966 40.8739 45.9437 41.3296 45.4879C42.0758 44.7416 42.2539 43.5467 41.7639 42.623C42.1166 42.5045 42.4398 42.3059 42.7105 42.0352C43.7634 40.9821 43.5761 39.1889 42.4275 38.2992L43.8325 37.9947C45.0179 37.7372 45.8782 36.6711 45.8782 35.4596C45.8783 34.0809 44.7525 32.9215 43.4042 32.8658ZM25.7323 4.96525C25.7323 3.03513 27.3026 1.46488 29.2328 1.46488H30.2621V2.4942C30.2621 4.36553 28.7861 5.89848 26.937 5.99018L27.999 5.04992C28.3019 4.78175 28.33 4.31885 28.0619 4.01601C27.7937 3.71308 27.3308 3.68495 27.028 3.95312L25.7323 5.10022V4.96525ZM22.9955 5.81879C22.7094 5.53275 22.2457 5.53275 21.9597 5.81879C21.6736 6.10483 21.6736 6.56861 21.9597 6.85456L23.2315 8.12636C21.3044 8.12265 19.7377 6.55406 19.7377 4.62618V3.59676H20.7671C22.695 3.59676 24.2637 5.1634 24.2673 7.0905L22.9955 5.81879ZM6.47816 36.5635C5.96144 36.4512 5.58634 35.9871 5.58634 35.4598C5.58634 34.7603 6.24602 34.2135 6.92983 34.3498C7.15747 35.2022 7.44488 36.0374 7.79 36.8477L6.47816 36.5635ZM8.32488 40.9994C7.94919 40.6237 7.94743 39.9921 8.32498 39.6183C8.32498 39.6183 11.217 36.7263 11.2252 36.718C11.6007 36.3426 12.2301 36.3419 12.6063 36.718C12.9871 37.0988 12.9871 37.7183 12.6064 38.099L9.70597 40.9995C9.33174 41.3772 8.6996 41.3741 8.32488 40.9994ZM9.70606 44.4522C9.32529 44.0714 9.32529 43.4519 9.70606 43.0711L14.6781 38.0991C15.0513 37.7214 15.6846 37.7211 16.059 38.0991H16.0591C16.4353 38.4717 16.4368 39.1066 16.059 39.4802L11.0871 44.4522C10.7129 44.83 10.0807 44.8268 9.70606 44.4522ZM13.5041 46.8692C13.1233 47.2498 12.5038 47.25 12.1229 46.8692C11.7421 46.4884 11.7421 45.8688 12.1229 45.488L17.0947 40.5161C17.4755 40.1354 18.095 40.1353 18.4759 40.5161C18.8567 40.8969 18.8567 41.5164 18.4759 41.8972L13.5041 46.8692ZM19.8571 45.35L16.9567 48.2503C16.576 48.631 15.9566 48.6311 15.5756 48.2503C15.2 47.8749 15.1982 47.2434 15.5754 46.8696L18.476 43.969C18.8492 43.5913 19.4808 43.5928 19.8571 43.969C20.2379 44.3496 20.2379 44.9692 19.8571 45.35ZM20.8929 42.933C20.6219 42.6621 20.2984 42.4634 19.9455 42.345C20.4304 41.4234 20.2859 40.2546 19.5119 39.4804C19.042 39.0106 18.4267 38.7731 17.8095 38.7671C17.8036 38.1236 17.5507 37.5192 17.0948 37.0635C16.6337 36.6023 16.0207 36.3484 15.3685 36.3484C14.9647 36.3484 14.5759 36.4461 14.2288 36.6297C14.1128 36.2833 13.9176 35.9578 13.6422 35.6824H13.6421C13.181 35.2212 12.5679 34.9673 11.9157 34.9673C11.2635 34.9673 10.6504 35.2213 10.1893 35.6825L9.27666 36.5952C8.27986 34.3824 7.75621 31.9529 7.75621 29.5088C7.75621 25.9534 8.83817 22.6461 10.6898 19.8983C12.2181 20.9583 13.357 22.3656 13.7883 23.7579C14.0637 24.6459 14.0069 25.3625 13.9285 26.3542C13.8325 27.5686 13.7129 29.0799 14.1728 31.4805C14.3966 32.6504 14.6362 33.3871 14.8199 33.8984C14.9581 34.2834 15.3843 34.4739 15.7569 34.3401C16.1376 34.2033 16.3353 33.7838 16.1985 33.4031C16.0328 32.942 15.8164 32.2755 15.6115 31.2051C15.1887 28.9985 15.2951 27.6551 15.3889 26.47C15.4733 25.4026 15.5462 24.4809 15.1875 23.3243C14.6575 21.6127 13.3537 19.9669 11.5612 18.7181C13.8551 15.8674 17.0349 13.7581 20.6794 12.8145C21.1006 14.5907 21.447 16.5 21.7373 18.3635C22.2056 21.3684 22.5754 23.7418 24.3734 24.3208C25.4059 24.6534 26.29 24.1535 27.0699 23.7127C27.797 23.3017 28.4838 22.9136 29.317 23.0752C30.5885 23.3218 31.4204 25.3468 32.5825 26.3019C34.2905 27.7059 36.7874 28.2637 39.2867 28.0568C39.69 28.0234 39.9896 27.6695 39.9562 27.2664C39.9227 26.8632 39.5664 26.5635 39.1657 26.597C36.9369 26.7813 34.824 26.2484 33.5126 25.1703C32.0578 23.9744 31.7433 22.054 29.596 21.6372C28.233 21.3727 27.1885 21.963 26.3491 22.4374C25.6639 22.8247 25.2238 23.0558 24.8223 22.9265C23.8837 22.6242 23.5442 20.4451 23.1846 18.138C22.8904 16.2502 22.537 14.3082 22.1122 12.5095C23.0514 12.3505 24.0159 12.2664 24.9997 12.2664C34.5078 12.2664 42.2433 20.0014 42.2433 29.509C42.2433 31.9531 41.7196 34.3826 40.7228 36.5954L39.8102 35.6828C39.349 35.2216 38.7359 34.9676 38.0838 34.9676C37.4316 34.9676 36.8185 35.2216 36.3574 35.6827H36.3573C36.0819 35.9581 35.8868 36.2836 35.7706 36.63C35.3992 36.4334 34.9753 36.3354 34.5446 36.3508C32.8966 34.8562 29.5274 31.9503 27.1216 33.1034C25.8564 33.7095 25.6633 34.9653 25.4396 36.4195C25.2784 37.4678 25.0957 38.656 24.5105 39.9882C23.8573 41.4765 22.8591 42.7595 21.4799 43.8831C21.3644 43.5354 21.169 43.209 20.8929 42.933ZM29.1068 42.933C28.1884 43.8515 28.1564 45.3254 29.0101 46.2829C27.7035 46.5942 26.3595 46.7521 24.9999 46.7521C23.6403 46.7521 22.2963 46.5942 20.9896 46.2829C21.1143 46.143 21.2198 45.992 21.3067 45.8334C23.4475 44.3828 24.9368 42.662 25.8521 40.5767C26.5146 39.0684 26.7215 37.7228 26.8877 36.6417C27.0898 35.3277 27.2112 34.6845 27.7548 34.424C29.1007 33.7793 31.5732 35.6967 33.0204 36.9557C32.4959 37.4168 32.1963 38.0692 32.1902 38.7669C31.573 38.773 30.9577 39.0104 30.4878 39.4803C29.7137 40.2545 29.5692 41.4234 30.0542 42.3449C29.7014 42.4634 29.3778 42.6621 29.1068 42.933ZM34.424 48.2503C34.0434 48.6309 33.4238 48.6309 33.043 48.2503L30.1427 45.3499C29.7619 44.9691 29.7619 44.3496 30.1427 43.9688H30.1426C30.5159 43.5911 31.1492 43.5906 31.5238 43.9688L34.4245 46.8696C34.8003 47.2422 34.7996 47.8748 34.424 48.2503ZM37.8768 46.8692C37.4962 47.25 36.8765 47.2498 36.4958 46.8692C35.6978 46.0713 32.3647 42.7379 31.5239 41.8972C31.1431 41.5164 31.1431 40.8969 31.5239 40.5161C31.9046 40.1353 32.5243 40.1355 32.9049 40.5161L37.8768 45.4881C38.2576 45.8688 38.2576 46.4884 37.8768 46.8692ZM40.2938 44.4522C39.9179 44.8281 39.2856 44.8287 38.9127 44.4522L33.9407 39.4802C33.5633 39.1065 33.5633 38.473 33.9407 38.0992H33.9408C34.3141 37.7215 34.9474 37.7211 35.3218 38.0992C36.8841 39.6771 38.7996 41.5772 40.2938 43.0712C40.6746 43.4519 40.6746 44.0714 40.2938 44.4522ZM41.6748 40.9995C41.2941 41.3802 40.6746 41.3802 40.2938 40.9995L37.3933 38.099C37.0127 37.7183 37.0127 37.0988 37.3934 36.718H37.3933C37.7667 36.3403 38.3981 36.3417 38.7745 36.718C39.3443 37.2878 41.0711 39.0203 41.6749 39.6184C42.0511 39.991 42.0505 40.6238 41.6748 40.9995ZM43.5219 36.5634L42.2098 36.8477C42.5549 36.0373 42.8423 35.2021 43.0699 34.3497C43.7467 34.2134 44.4134 34.7603 44.4134 35.4597C44.4134 35.9871 44.0383 36.4511 43.5219 36.5634Z" fill="#292D34"/>
</g>
<defs>
<clipPath id="clip0">
<rect width="50" height="50" fill="white"/>
</clipPath>
</defs>
</svg>
