<svg width="487" height="487" viewBox="0 0 487 487" fill="none" xmlns="http://www.w3.org/2000/svg">
<g clip-path="url(#clip0)">
<path d="M243.225 333.382C229.625 333.382 218.225 344.782 218.225 358.382C218.225 371.982 229.625 383.382 243.225 383.382C256.325 383.382 268.225 371.982 267.625 358.982C268.225 344.682 256.925 333.382 243.225 333.382Z" fill="#FD5F78"/>
<path d="M474.625 421.982C490.325 394.882 490.425 362.582 474.825 335.582L318.225 64.3818C302.725 37.0818 274.725 20.8818 243.325 20.8818C211.925 20.8818 183.925 37.1818 168.425 64.2818L11.625 335.782C-3.97501 363.082 -3.87501 395.582 11.925 422.682C27.525 449.482 55.425 465.582 86.625 465.582H399.425C430.725 465.582 458.825 449.282 474.625 421.982ZM440.625 402.382C431.925 417.382 416.525 426.282 399.325 426.282H86.525C69.525 426.282 54.225 417.582 45.725 402.882C37.125 387.982 37.025 370.182 45.625 355.182L202.425 83.7818C210.925 68.8818 226.125 60.0818 243.325 60.0818C260.425 60.0818 275.725 68.9818 284.225 83.8818L440.925 355.282C449.325 369.882 449.225 387.482 440.625 402.382Z" fill="#FD5F78"/>
<path d="M237.025 157.882C225.125 161.282 217.725 172.082 217.725 185.182C218.325 193.082 218.825 201.082 219.425 208.982C221.125 239.082 222.825 268.582 224.525 298.682C225.125 308.882 233.025 316.282 243.225 316.282C253.425 316.282 261.425 308.382 261.925 298.082C261.925 291.882 261.925 286.182 262.525 279.882C263.625 260.582 264.825 241.282 265.925 221.982C266.525 209.482 267.625 196.982 268.225 184.482C268.225 179.982 267.625 175.982 265.925 171.982C260.825 160.782 248.925 155.082 237.025 157.882Z" fill="#FD5F78"/>
</g>
<defs>
<clipPath id="clip0">
<rect width="486.463" height="486.463" fill="white"/>
</clipPath>
</defs>
</svg>
