<svg width="700" height="700" viewBox="0 0 700 700" fill="none" xmlns="http://www.w3.org/2000/svg">
<path d="M0 200C0 89.543 89.5431 0 200 0H500C610.457 0 700 89.5431 700 200V500C700 610.457 610.457 700 500 700H200C89.543 700 0 610.457 0 500V200Z" fill="#E9EFF5"/>
<path d="M606 203.979H527.207L605.973 125.213L584.76 104L484.781 203.979H94V515.966H172.793L94.027 594.733L115.24 615.946L215.219 515.967H606V203.979ZM124 485.967V233.979H454.781L424.781 263.979H154.004V455.966H232.794L202.794 485.966H124V485.967ZM384.815 303.945L293.972 394.788C287.664 384.674 284.006 372.745 284.006 359.973C284.006 323.584 313.61 293.979 350 293.979C362.772 293.979 374.701 297.638 384.815 303.945V303.945ZM272.379 416.381L262.793 425.967H184.003V293.979H280.354C264.033 311.195 254.006 334.434 254.006 359.973C254.006 381.037 260.832 400.535 272.379 416.381V416.381ZM315.185 416.001L406.028 325.158C412.336 335.272 415.994 347.201 415.994 359.973C415.994 396.362 386.39 425.967 350 425.967C337.228 425.967 325.299 422.308 315.185 416.001ZM427.621 303.565L437.207 293.979H515.997V425.966H419.646C435.967 408.75 445.994 385.511 445.994 359.972C445.994 338.909 439.168 319.411 427.621 303.565V303.565ZM576 485.967H245.219L275.219 455.967H545.996V263.979H467.206L497.206 233.979H576V485.967Z" fill="#9BB2C7"/>
</svg>
