<svg width="512" height="512" viewBox="0 0 512 512" fill="none" xmlns="http://www.w3.org/2000/svg">
<path d="M426 495.983H86C60.636 495.983 40 475.348 40 449.983V207.963C40 199.127 47.163 191.963 56 191.963C64.837 191.963 72 199.127 72 207.963V449.983C72 457.703 78.28 463.983 86 463.983H426C433.72 463.983 440 457.703 440 449.983V207.963C440 199.127 447.163 191.963 456 191.963C464.837 191.963 472 199.127 472 207.963V449.983C472 475.347 451.365 495.983 426 495.983Z" fill="#292D34"/>
<path d="M496 263.958C491.905 263.958 487.811 262.396 484.687 259.271L285.698 60.2841C269.323 43.9081 242.678 43.9081 226.302 60.2841L27.314 259.272C21.066 265.521 10.935 265.521 4.68699 259.272C-1.56201 253.024 -1.56201 242.893 4.68699 236.645L203.675 37.6561C232.527 8.80409 279.474 8.80409 308.325 37.6561L507.313 236.644C513.562 242.893 513.562 253.023 507.313 259.271C504.19 262.396 500.095 263.958 496 263.958V263.958Z" fill="#292D34"/>
<path d="M320 495.983H192C183.163 495.983 176 488.819 176 479.983V337.983C176 310.413 198.43 287.983 226 287.983H286C313.57 287.983 336 310.413 336 337.983V479.983C336 488.819 328.837 495.983 320 495.983ZM208 463.983H304V337.983C304 328.058 295.925 319.983 286 319.983H226C216.075 319.983 208 328.058 208 337.983V463.983Z" fill="#292D34"/>
</svg>
