<svg width="50" height="50" viewBox="0 0 50 50" fill="none" xmlns="http://www.w3.org/2000/svg">
<path d="M48.5644 27.0973C51.0972 24.5757 50.3146 19.4753 45.9274 19.4753L34.384 19.483C34.8224 17.0385 35.4573 12.9862 35.4322 12.6036C35.1898 8.98004 32.88 4.56999 32.7801 4.38949C32.3588 3.60495 30.2318 2.54127 28.0913 2.99704C25.3238 3.58948 25.0411 5.35485 25.0524 5.84156C25.0524 5.84156 25.1716 10.671 25.1832 11.9596C23.8601 14.8657 19.2979 22.5029 17.9151 23.0914C17.5844 22.8913 17.2092 22.7836 16.8189 22.7836H2.235C0.996306 22.7836 0 23.7854 0 25.0183L0.00193395 45.1742C0.0886393 46.2608 1.01178 47.113 2.1022 47.113H15.2015C16.3631 47.113 17.3076 46.1686 17.3076 45.0069V44.3378C17.3076 44.3378 17.7943 44.3014 18.0154 44.4435C18.8576 44.9782 19.8984 45.6513 21.256 45.6513H40.8041C48.1125 45.6513 47.3279 39.1642 46.6604 38.2794C47.8952 36.935 48.6588 34.5636 47.6164 32.6903C48.4164 31.8422 49.8243 29.5112 48.5644 27.0973ZM14.7515 45.0031H2.09834V24.8874H14.7515V45.0031ZM45.1545 26.9242L45.0352 27.4222C48.4029 28.3798 46.6104 32.2612 44.1946 32.513L44.0753 33.011C47.3044 33.8323 45.764 37.8288 43.2347 38.1018L43.1155 38.5978C45.7524 39.0307 45.1139 43.531 41.119 43.531L21.2361 43.5387C19.832 43.5387 18.553 41.9387 17.5203 41.9387H16.6191V26.4549C17.7424 25.7587 19.1232 24.8549 19.8907 24.2028C21.3408 22.966 27.2761 13.3749 27.2761 12.1746C27.2761 10.9743 27.1452 5.78161 27.1452 5.78161C27.1452 5.78161 28.3088 4.28151 30.9071 5.3758C30.9071 5.3758 33.0937 9.47609 33.3168 12.7438C33.3168 12.7438 32.3321 19.4753 31.8032 21.5871H45.5874C48.974 21.591 48.3278 26.4262 45.1545 26.9242Z" fill="#292D34"/>
</svg>
