<svg width="512" height="512" viewBox="0 0 512 512" fill="none" xmlns="http://www.w3.org/2000/svg">
<path d="M330.667 384C324.771 384 315 388.77 315 394.666V469.333C315 481.093 310.427 485 298.667 485H178H52.667C40.907 485 29.5 481.094 29.5 469.334V42.667C29.5 30.907 30.907 28 42.667 28H298.667C310.427 28 315 30.907 315 42.667V117.334C315 123.23 324.771 128.001 330.667 128.001C336.563 128.001 341.334 123.23 341.334 117.334V42.667C341.333 19.135 322.198 0 298.667 0H42.667C19.135 0 0 19.135 0 42.667V469.334C0 492.865 19.135 512 42.667 512H298.667C322.198 512 341.334 492.865 341.334 469.333V394.666C341.333 388.771 336.563 384 330.667 384Z" fill="#292D34"/>
<path d="M508.542 248.135L380.542 130.802C376.177 126.823 369.459 127.125 365.469 131.458C361.49 135.802 361.781 142.552 366.125 146.531L473.915 245.333H138.667C132.771 245.333 128 250.104 128 256C128 261.896 132.771 266.667 138.667 266.667H473.916L366.126 365.469C361.782 369.448 361.491 376.198 365.47 380.542C367.574 382.834 370.449 384 373.335 384C375.908 384 378.491 383.073 380.543 381.198L508.543 263.865C510.75 261.844 512 258.99 512 256C512 253.01 510.75 250.156 508.542 248.135Z" fill="#292D34"/>
</svg>
