<svg width="385" height="385" viewBox="0 0 385 385" fill="none" xmlns="http://www.w3.org/2000/svg">
<g clip-path="url(#clip0)">
<path d="M12.03 120.303H372.939C379.58 120.303 384.969 114.913 384.969 108.273C384.969 101.632 379.579 96.2429 372.939 96.2429H12.03C5.389 96.2429 0 101.633 0 108.273C0 114.913 5.39 120.303 12.03 120.303Z" fill="#292D34"/>
<path d="M372.939 180.455H12.03C5.389 180.455 0 185.845 0 192.485C0 199.125 5.39 204.515 12.03 204.515H372.939C379.58 204.515 384.969 199.125 384.969 192.485C384.969 185.845 379.58 180.455 372.939 180.455Z" fill="#292D34"/>
<path d="M372.939 264.667H132.333C125.692 264.667 120.303 270.057 120.303 276.697C120.303 283.338 125.693 288.727 132.333 288.727H372.939C379.58 288.727 384.969 283.337 384.969 276.697C384.97 270.056 379.58 264.667 372.939 264.667Z" fill="#292D34"/>
</g>
<defs>
<clipPath id="clip0">
<rect width="384.97" height="384.97" fill="white"/>
</clipPath>
</defs>
</svg>
