<svg width="700" height="700" viewBox="0 0 700 700" fill="none" xmlns="http://www.w3.org/2000/svg">
<path d="M0 200C0 89.543 89.5431 0 200 0H500C610.457 0 700 89.5431 700 200V500C700 610.457 610.457 700 500 700H200C89.543 700 0 610.457 0 500V200Z" fill="#ED8B9A"/>
<path d="M579.122 371.324C570.903 370.332 563.43 376.215 562.45 384.441C550.122 487.728 462.155 565.622 357.832 565.622C309.848 565.622 263.13 548.794 226.283 518.244C193.823 491.33 170.378 455.014 159.206 414.804L177.128 424.647C184.389 428.636 193.506 425.983 197.495 418.722C201.483 411.46 198.831 402.339 191.569 398.351L145.538 373.07C138.285 369.086 129.171 371.73 125.179 378.98L99.8633 424.952C95.8673 432.21 98.5117 441.331 105.766 445.327C115.125 449.616 122.402 445.667 126.14 439.425L132.027 428.733C145.429 472.463 171.558 511.837 207.135 541.337C249.353 576.34 302.872 595.617 357.828 595.617C477.338 595.617 578.11 506.361 592.235 387.992C593.219 379.769 587.344 372.304 579.122 371.324V371.324Z" fill="white"/>
<path d="M600.926 252.095C593.324 248.818 584.493 252.322 581.215 259.927L576.493 270.88C561.091 233.283 535.954 199.76 503.752 174.436C461.799 141.445 411.339 124.007 357.832 124.007C303.356 124.007 250.209 142.98 208.174 177.436C166.718 211.412 137.828 258.833 126.828 310.958C125.117 319.063 130.304 327.02 138.41 328.731C148.425 329.059 154.691 324.211 156.179 317.153C165.776 271.681 190.995 230.303 227.189 200.635C263.876 170.565 310.274 154.007 357.832 154.007C404.546 154.007 448.596 169.225 485.209 198.014C514.892 221.357 537.696 252.662 550.876 287.692L531.888 279.524C524.283 276.255 515.455 279.767 512.181 287.376C508.908 294.985 512.423 303.809 520.033 307.083L568.282 327.836C576.95 330.512 584.289 329.02 587.985 319.996L608.762 271.806C612.043 264.2 608.535 255.376 600.926 252.095V252.095Z" fill="white"/>
<path d="M266.536 393.246C258.255 393.246 251.537 399.96 251.537 408.245V414.257C251.537 445.768 277.2 471.405 308.743 471.405H314.977V498.103C314.977 506.388 321.696 513.103 329.977 513.103C338.262 513.103 344.977 506.388 344.977 498.103V471.405H363.011V498.103C363.011 506.388 369.726 513.103 378.011 513.103C386.292 513.103 393.011 506.388 393.011 498.103V471.405H399.245C430.788 471.405 456.451 445.768 456.451 414.257V405.562C456.451 383.109 441.334 363.211 419.69 357.168L393.007 349.719V276.091H399.245C414.245 276.091 426.452 288.271 426.452 303.243V305.657C426.452 313.938 433.167 320.657 441.448 320.657C449.733 320.657 456.448 313.938 456.448 305.657V303.243C456.448 271.728 430.788 246.092 399.245 246.092H393.007V221.526C393.007 213.241 386.292 206.526 378.011 206.526C369.726 206.526 363.011 213.241 363.011 221.526V246.092H344.977V221.526C344.977 213.241 338.262 206.526 329.977 206.526C321.692 206.526 314.977 213.241 314.977 221.526V246.092H308.739C277.2 246.092 251.537 271.728 251.537 303.243C251.537 325.692 266.654 345.59 288.294 351.633L314.977 359.082V441.405H308.743C293.743 441.405 281.536 429.226 281.536 414.257V408.245C281.536 399.96 274.821 393.246 266.536 393.246ZM411.628 386.062C420.354 388.5 426.452 396.515 426.452 405.558V414.257C426.452 429.226 414.249 441.405 399.249 441.405H393.011V380.863L411.628 386.062ZM363.011 276.091V341.344L344.977 336.309V276.091H363.011ZM296.36 322.739C287.634 320.301 281.536 312.286 281.536 303.239C281.536 288.271 293.743 276.091 308.743 276.091H314.977V327.934L296.36 322.739ZM344.977 367.457L363.011 372.488V441.405H344.977V367.457Z" fill="white"/>
</svg>
