<svg width="513" height="513" viewBox="0 0 513 513" fill="none" xmlns="http://www.w3.org/2000/svg">
<g clip-path="url(#clip0)">
<path d="M338 366.001C349.046 366.001 358 357.047 358 346.001C358 334.955 349.046 326.001 338 326.001C326.954 326.001 318 334.955 318 346.001C318 357.047 326.954 366.001 338 366.001Z" fill="#76EA9E"/>
<path d="M238 472.001H80C57.944 472.001 40 454.057 40 432.001V268.001C40 245.945 57.944 228.001 80 228.001H368C390.056 228.001 408 245.945 408 268.001V308.001C408 319.047 416.954 328.001 428 328.001C439.046 328.001 448 319.047 448 308.001V268.001C448 223.889 412.112 188.001 368 188.001H343.963V117.467C343.963 52.696 290.131 0.000976562 223.963 0.000976562C157.795 0.000976562 103.963 52.696 103.963 117.467V188.001H80C35.888 188.001 0 223.889 0 268.001V432.001C0 476.113 35.888 512.001 80 512.001H238C249.046 512.001 258 503.047 258 492.001C258 480.955 249.046 472.001 238 472.001ZM143.963 117.467C143.963 74.752 179.851 40.001 223.963 40.001C268.075 40.001 303.963 74.752 303.963 117.467V188.001H143.963V117.467V117.467Z" fill="#76EA9E"/>
<path d="M503.643 325.739C494.661 319.308 482.166 321.377 475.739 330.359L377.158 468.059C374.466 471.181 371.092 471.855 369.284 471.975C367.43 472.098 363.86 471.863 360.717 468.914L297.009 406.743C289.103 399.027 276.441 399.184 268.727 407.088C261.012 414.993 261.166 427.655 269.072 435.37L332.892 497.651C332.952 497.709 333.011 497.767 333.072 497.824C342.639 506.933 355.41 512 368.55 512C369.679 512 370.811 511.963 371.943 511.887C386.257 510.933 399.622 503.972 408.609 492.79C408.841 492.5 409.065 492.205 409.282 491.903L508.263 353.643C514.692 344.662 512.624 332.168 503.643 325.739Z" fill="#76EA9E"/>
<path d="M262 366.001C273.046 366.001 282 357.047 282 346.001C282 334.955 273.046 326.001 262 326.001C250.954 326.001 242 334.955 242 346.001C242 357.047 250.954 366.001 262 366.001Z" fill="#76EA9E"/>
<path d="M112 366.001C123.046 366.001 132 357.047 132 346.001C132 334.955 123.046 326.001 112 326.001C100.954 326.001 92 334.955 92 346.001C92 357.047 100.954 366.001 112 366.001Z" fill="#76EA9E"/>
<path d="M187 366.001C198.046 366.001 207 357.047 207 346.001C207 334.955 198.046 326.001 187 326.001C175.954 326.001 167 334.955 167 346.001C167 357.047 175.954 366.001 187 366.001Z" fill="#76EA9E"/>
</g>
<defs>
<clipPath id="clip0">
<rect width="512.002" height="512.002" fill="white"/>
</clipPath>
</defs>
</svg>
