<svg width="214" height="256" viewBox="0 0 214 256" fill="none" xmlns="http://www.w3.org/2000/svg">
<path d="M53.672 165.328H48.344V176H53.672C56.616 176 59 173.616 59 170.672C59 167.728 56.616 165.328 53.672 165.328V165.328Z" fill="#FD907E"/>
<path d="M109.672 165.328H101.672V197.328H109.672C111.144 197.328 112.344 196.128 112.344 194.656V168C112.328 166.528 111.128 165.328 109.672 165.328V165.328Z" fill="#FD907E"/>
<path d="M184.328 0H29.6561C13.4801 0 0.328125 13.152 0.328125 29.328V226.656C0.328125 242.832 13.4801 255.984 29.6561 255.984H184.328C200.504 255.984 213.656 242.832 213.656 226.656V29.328C213.672 13.152 200.504 0 184.328 0ZM53.6721 192H48.3441V205.328C48.3441 209.744 44.7601 213.328 40.3441 213.328C35.9281 213.328 32.3441 209.744 32.3441 205.328V157.328C32.3441 152.912 35.9281 149.328 40.3441 149.328H53.6721C65.4321 149.328 75.0001 158.896 75.0001 170.656C75.0001 182.416 65.4321 192 53.6721 192V192ZM128.328 194.672C128.328 204.96 119.96 213.344 109.656 213.344H93.6561C89.2401 213.344 85.6561 209.76 85.6561 205.344V157.344C85.6561 152.928 89.2401 149.344 93.6561 149.344H109.656C119.944 149.344 128.328 157.712 128.328 168.016V194.672ZM173.672 176C178.088 176 181.672 179.584 181.672 184C181.672 188.416 178.088 192 173.672 192H155V205.328C155 209.744 151.416 213.328 147 213.328C142.584 213.328 139 209.744 139 205.328V168C139 157.712 147.368 149.328 157.672 149.328H173.672C178.088 149.328 181.672 152.912 181.672 157.328C181.672 161.744 178.088 165.328 173.672 165.328H157.672C156.2 165.328 155 166.528 155 168V176H173.672Z" fill="#FC573B"/>
</svg>
