<svg width="20" height="20" viewBox="0 0 20 20" fill="none" xmlns="http://www.w3.org/2000/svg">
<g clip-path="url(#clip0)">
<path d="M12.1095 7.65625C10.2141 7.65625 8.672 9.1983 8.672 11.0938C8.672 12.9892 10.2141 14.5312 12.1095 14.5312C14.0049 14.5312 15.547 12.9892 15.547 11.0938C15.547 9.1983 14.0049 7.65625 12.1095 7.65625ZM12.1095 13.75C10.6448 13.75 9.45325 12.5584 9.45325 11.0938C9.45325 9.62906 10.6448 8.4375 12.1095 8.4375C13.5742 8.4375 14.7657 9.62906 14.7657 11.0938C14.7657 12.5584 13.5742 13.75 12.1095 13.75Z" fill="white"/>
<path d="M12.1095 9.33606C11.8937 9.33606 11.7189 9.51093 11.7189 9.72668C11.7189 9.94244 11.8937 10.1173 12.1095 10.1173C12.6478 10.1173 13.0859 10.5554 13.0859 11.0937C13.0859 11.3095 13.2608 11.4843 13.4765 11.4843C13.6923 11.4843 13.8672 11.3095 13.8672 11.0937C13.8672 10.1245 13.0787 9.33606 12.1095 9.33606Z" fill="white"/>
<path d="M2.40803 4.03916C2.30885 3.84767 2.07326 3.77274 1.8816 3.87177C1.68995 3.97096 1.61503 4.20671 1.71422 4.39836L2.7657 6.42961C2.83375 6.56114 2.97139 6.64156 3.11848 6.64064C3.26649 6.63835 3.40062 6.5526 3.46471 6.41908L4.1013 5.0937L4.79268 6.42961C4.85997 6.55931 4.99379 6.64064 5.13967 6.64064H5.14546C5.29363 6.63835 5.4276 6.5526 5.49184 6.41908L6.46734 4.38783C6.56072 4.19343 6.47878 3.95997 6.28438 3.86659C6.08983 3.7732 5.85652 3.85514 5.76314 4.04969L5.12654 5.37507L4.43501 4.03916C4.36696 3.90763 4.22963 3.82691 4.08238 3.82813C3.93422 3.83042 3.80009 3.91618 3.73601 4.04969L3.09956 5.37507L2.40803 4.03916Z" fill="white"/>
<path d="M4.92139 1.875C5.02423 1.875 5.12494 1.83319 5.19757 1.76056C5.27036 1.68793 5.31201 1.58707 5.31201 1.48438C5.31201 1.38168 5.27036 1.28082 5.19757 1.20819C5.12494 1.13556 5.02423 1.09375 4.92139 1.09375C4.8187 1.09375 4.71799 1.13556 4.64536 1.20819C4.57257 1.28082 4.53076 1.38168 4.53076 1.48438C4.53076 1.58707 4.57257 1.68793 4.64536 1.76056C4.71799 1.83319 4.8187 1.875 4.92139 1.875Z" fill="white"/>
<path d="M20 7.8125V2.65625C20 1.79474 19.299 1.09375 18.4375 1.09375H6.56204C6.34644 1.09375 6.17142 1.26862 6.17142 1.48438C6.17142 1.70013 6.34644 1.875 6.56204 1.875H18.4375C18.8683 1.875 19.2188 2.22549 19.2188 2.65625V7.8125C19.2188 8.24326 18.8683 8.59375 18.4375 8.59375H16.5625C16.5512 8.59375 16.5402 8.59451 16.5292 8.59543C15.9264 7.53311 14.9518 6.70853 13.7834 6.29944L14.3625 5.09384L15.054 6.4296C15.1212 6.55945 15.255 6.64062 15.4008 6.64062H15.4068C15.5548 6.63834 15.6889 6.55258 15.753 6.41907L16.7285 4.38782C16.8219 4.19342 16.74 3.96011 16.5456 3.86673C16.3512 3.77319 16.1177 3.85513 16.0243 4.04968L15.3879 5.37506L14.6964 4.03915C14.6283 3.90762 14.4911 3.8269 14.3436 3.82828C14.1954 3.83041 14.0614 3.91617 13.9973 4.04968L13.3607 5.37506L12.6694 4.03915C12.5702 3.84766 12.3344 3.77274 12.1428 3.87192C11.9511 3.9711 11.8764 4.2067 11.9754 4.39835L12.84 6.06842C12.6015 6.03394 12.3576 6.01562 12.1097 6.01562C11.6295 6.01562 11.1646 6.08276 10.7239 6.20789L11.5981 4.38782C11.6914 4.19342 11.6095 3.96011 11.4149 3.86673C11.2206 3.77319 10.9871 3.85513 10.8939 4.04968L10.2573 5.37506L9.56573 4.03915C9.49768 3.90762 9.36111 3.8269 9.21295 3.82828C9.06494 3.83041 8.93082 3.91617 8.86673 4.04968L8.23029 5.37506L7.53876 4.03915C7.43958 3.84766 7.20398 3.77274 7.01233 3.87192C6.82068 3.9711 6.74576 4.2067 6.84494 4.39835L7.89642 6.4296C7.96448 6.56113 8.1015 6.64154 8.24921 6.64062C8.39722 6.63834 8.53134 6.55258 8.59543 6.41907L9.23203 5.09384L9.9234 6.4296C9.935 6.45203 9.94919 6.47232 9.9646 6.4917C9.00665 6.94 8.21075 7.67853 7.69089 8.59375H1.5625C1.13174 8.59375 0.78125 8.24326 0.78125 7.8125V2.65625C0.78125 2.22549 1.13174 1.875 1.5625 1.875H3.16376C3.37952 1.875 3.55438 1.70013 3.55438 1.48438C3.55438 1.26862 3.37952 1.09375 3.16376 1.09375H1.5625C0.700989 1.09375 0 1.79474 0 2.65625V7.8125C0 8.67416 0.700989 9.375 1.5625 9.375H7.33109C7.1373 9.91211 7.0314 10.4907 7.0314 11.0938C7.0314 13.8939 9.30939 16.1719 12.1095 16.1719C13.0296 16.1719 13.8934 15.9259 14.6385 15.4962L17.7388 18.5965C17.997 18.8547 18.3362 18.9838 18.6754 18.9838C19.0146 18.9838 19.3538 18.8547 19.612 18.5965C20.1285 18.08 20.1285 17.2397 19.612 16.7232L18.3939 15.5051C18.2413 15.3526 17.9939 15.3525 17.8415 15.5051C17.6889 15.6577 17.6889 15.9048 17.8415 16.0574L19.0596 17.2757C19.2714 17.4875 19.2714 17.8322 19.0596 18.0441C18.8478 18.2559 18.5031 18.2559 18.2913 18.0441L15.2937 15.0464C16.4479 14.1148 17.1877 12.6892 17.1877 11.0938C17.1877 10.4907 17.0818 9.91211 16.888 9.375H18.4375C19.2992 9.375 20 8.67401 20 7.8125ZM12.1095 15.3906C9.7403 15.3906 7.81265 13.463 7.81265 11.0938C7.81265 8.72452 9.7403 6.79688 12.1095 6.79688C14.4788 6.79688 16.4064 8.72452 16.4064 11.0938C16.4064 13.463 14.4789 15.3906 12.1095 15.3906Z" fill="white"/>
<path d="M16.9149 14.5786C16.8422 14.6512 16.8004 14.7519 16.8004 14.8547C16.8004 14.9574 16.8422 15.0581 16.9149 15.1309C16.9879 15.2036 17.0883 15.2454 17.191 15.2454C17.2937 15.2454 17.3946 15.2036 17.4672 15.1309C17.5403 15.0581 17.5817 14.9574 17.5817 14.8547C17.5817 14.7519 17.5403 14.6512 17.4672 14.5786C17.3946 14.5059 17.2942 14.4641 17.191 14.4641C17.0883 14.4641 16.9875 14.5059 16.9149 14.5786Z" fill="white"/>
</g>
<defs>
<clipPath id="clip0">
<rect width="20" height="20" fill="white"/>
</clipPath>
</defs>
</svg>
