<svg width="50" height="50" viewBox="0 0 50 50" fill="none" xmlns="http://www.w3.org/2000/svg">
<path d="M0 9.375V1.95312C0 0.874329 0.874329 0 1.95312 0H9.375C10.4538 0 11.3281 0.874329 11.3281 1.95312C11.3281 3.03192 10.4538 3.90625 9.375 3.90625H3.90625V9.375C3.90625 10.4538 3.03192 11.3281 1.95312 11.3281C0.874329 11.3281 0 10.4538 0 9.375ZM48.0469 0H40.625C39.5462 0 38.6719 0.874329 38.6719 1.95312C38.6719 3.03192 39.5462 3.90625 40.625 3.90625H46.0938V9.375C46.0938 10.4538 46.9681 11.3281 48.0469 11.3281C49.1257 11.3281 50 10.4538 50 9.375V1.95312C50 0.874329 49.1257 0 48.0469 0ZM9.375 46.0938H3.90625V40.625C3.90625 39.5462 3.03192 38.6719 1.95312 38.6719C0.874329 38.6719 0 39.5462 0 40.625V48.0469C0 49.1257 0.874329 50 1.95312 50H9.375C10.4538 50 11.3281 49.1257 11.3281 48.0469C11.3281 46.9681 10.4538 46.0938 9.375 46.0938ZM48.0469 38.6719C46.9681 38.6719 46.0938 39.5462 46.0938 40.625V46.0938H40.625C39.5462 46.0938 38.6719 46.9681 38.6719 48.0469C38.6719 49.1257 39.5462 50 40.625 50H48.0469C49.1257 50 50 49.1257 50 48.0469V40.625C50 39.5462 49.1257 38.6719 48.0469 38.6719ZM23.291 9.61914V21.3379C23.291 22.4167 22.4167 23.291 21.3379 23.291H9.61914C8.54034 23.291 7.66602 22.4167 7.66602 21.3379V9.61914C7.66602 8.54034 8.54034 7.66602 9.61914 7.66602H21.3379C22.4167 7.66602 23.291 8.54034 23.291 9.61914ZM19.3848 11.5723H11.5723V19.3848H19.3848V11.5723ZM41.3574 23.291H29.6387C28.5599 23.291 27.6855 22.4167 27.6855 21.3379V9.61914C27.6855 8.54034 28.5599 7.66602 29.6387 7.66602H41.3574C42.4362 7.66602 43.3105 8.54034 43.3105 9.61914V21.3379C43.3105 22.4167 42.4362 23.291 41.3574 23.291ZM39.4043 11.5723H31.5918V19.3848H39.4043V11.5723ZM23.291 29.6387V41.3574C23.291 42.4362 22.4167 43.3105 21.3379 43.3105H9.61914C8.54034 43.3105 7.66602 42.4362 7.66602 41.3574V29.6387C7.66602 28.5599 8.54034 27.6855 9.61914 27.6855H21.3379C22.4167 27.6855 23.291 28.5599 23.291 29.6387ZM19.3848 31.5918H11.5723V39.4043H19.3848V31.5918ZM38.8428 40.7959H32.1533C31.0745 40.7959 30.2002 39.9216 30.2002 38.8428V32.1533C30.2002 31.0745 31.0745 30.2002 32.1533 30.2002H38.8428C39.9216 30.2002 40.7959 31.0745 40.7959 32.1533V38.8428C40.7959 39.9216 39.9216 40.7959 38.8428 40.7959ZM36.8896 34.1064H34.1064V36.8896H36.8896V34.1064Z" fill="white"/>
</svg>
