<svg width="20" height="20" viewBox="0 0 20 20" fill="none" xmlns="http://www.w3.org/2000/svg">
<path d="M11.5625 11.1719C11.7781 11.1719 11.9531 10.9969 11.9531 10.7812C11.9531 10.5656 11.7781 10.3906 11.5625 10.3906C11.3469 10.3906 11.1719 10.5656 11.1719 10.7812C11.1719 10.9969 11.3469 11.1719 11.5625 11.1719Z" fill="white"/>
<path d="M2.96875 11.1719C3.18436 11.1719 3.35938 10.9969 3.35938 10.7812C3.35938 10.5656 3.18436 10.3906 2.96875 10.3906C2.75314 10.3906 2.57812 10.5656 2.57812 10.7812C2.57812 10.9969 2.75314 11.1719 2.96875 11.1719Z" fill="white"/>
<path d="M0.390625 4.92188C0.606384 4.92188 0.78125 4.74701 0.78125 4.53125V0.78125H4.53125C4.74701 0.78125 4.92188 0.606384 4.92188 0.390625C4.92188 0.174866 4.74701 0 4.53125 0H0.390625C0.174866 0 0 0.174866 0 0.390625V4.53125C0 4.74701 0.174866 4.92188 0.390625 4.92188Z" fill="white"/>
<path d="M4.92188 19.6094C4.92188 19.3936 4.74701 19.2188 4.53125 19.2188H0.78125V15.4688C0.78125 15.253 0.606384 15.0781 0.390625 15.0781C0.174866 15.0781 0 15.253 0 15.4688V19.6094C0 19.8251 0.174866 20 0.390625 20H4.53125C4.74701 20 4.92188 19.8251 4.92188 19.6094Z" fill="white"/>
<path d="M19.6094 15.0781C19.3936 15.0781 19.2188 15.253 19.2188 15.4688V19.2188H15.4688C15.253 19.2188 15.0781 19.3936 15.0781 19.6094C15.0781 19.8251 15.253 20 15.4688 20H19.6094C19.8251 20 20 19.8251 20 19.6094V15.4688C20 15.253 19.8251 15.0781 19.6094 15.0781Z" fill="white"/>
<path d="M19.6094 0H15.4688C15.253 0 15.0781 0.174866 15.0781 0.390625C15.0781 0.606384 15.253 0.78125 15.4688 0.78125H19.2188V4.53125C19.2188 4.74701 19.3936 4.92188 19.6094 4.92188C19.8251 4.92188 20 4.74701 20 4.53125V0.390625C20 0.174866 19.8251 0 19.6094 0Z" fill="white"/>
<path d="M2.57812 17.0312C2.57812 17.247 2.75299 17.4219 2.96875 17.4219H6.875C7.09076 17.4219 7.26562 17.247 7.26562 17.0312V13.125C7.26562 12.9092 7.09076 12.7344 6.875 12.7344H2.96875C2.75299 12.7344 2.57812 12.9092 2.57812 13.125V17.0312ZM3.35938 13.5156H6.48438V16.6406H3.35938V13.5156Z" fill="white"/>
<path d="M6.875 2.57812H2.96875C2.75299 2.57812 2.57812 2.75299 2.57812 2.96875V6.875C2.57812 7.09076 2.75299 7.26562 2.96875 7.26562H6.875C7.09076 7.26562 7.26562 7.09076 7.26562 6.875V2.96875C7.26562 2.75299 7.09076 2.57812 6.875 2.57812ZM6.48438 6.48438H3.35938V3.35938H6.48438V6.48438Z" fill="white"/>
<path d="M17.4219 2.96875C17.4219 2.75299 17.247 2.57812 17.0312 2.57812H13.125C12.9092 2.57812 12.7344 2.75299 12.7344 2.96875V6.875C12.7344 7.09076 12.9092 7.26562 13.125 7.26562H17.0312C17.247 7.26562 17.4219 7.09076 17.4219 6.875V2.96875ZM16.6406 6.48438H13.5156V3.35938H16.6406V6.48438Z" fill="white"/>
<path d="M17.4219 17.0312V13.125C17.4219 12.9092 17.247 12.7344 17.0312 12.7344H13.125C12.9092 12.7344 12.7344 12.9092 12.7344 13.125V17.0312C12.7344 17.247 12.9092 17.4219 13.125 17.4219H17.0312C17.247 17.4219 17.4219 17.247 17.4219 17.0312ZM16.6406 16.6406H13.5156V13.5156H16.6406V16.6406Z" fill="white"/>
<path d="M5.3125 14.2969H4.53125C4.31549 14.2969 4.14062 14.4717 4.14062 14.6875V15.4688C4.14062 15.6845 4.31549 15.8594 4.53125 15.8594H5.3125C5.52826 15.8594 5.70312 15.6845 5.70312 15.4688V14.6875C5.70312 14.4717 5.52826 14.2969 5.3125 14.2969Z" fill="white"/>
<path d="M4.53125 5.70312H5.3125C5.52826 5.70312 5.70312 5.52826 5.70312 5.3125V4.53125C5.70312 4.31549 5.52826 4.14062 5.3125 4.14062H4.53125C4.31549 4.14062 4.14062 4.31549 4.14062 4.53125V5.3125C4.14062 5.52826 4.31549 5.70312 4.53125 5.70312Z" fill="white"/>
<path d="M14.6875 5.70312H15.4688C15.6845 5.70312 15.8594 5.52826 15.8594 5.3125V4.53125C15.8594 4.31549 15.6845 4.14062 15.4688 4.14062H14.6875C14.4717 4.14062 14.2969 4.31549 14.2969 4.53125V5.3125C14.2969 5.52826 14.4717 5.70312 14.6875 5.70312Z" fill="white"/>
<path d="M14.6875 15.8594H15.4688C15.6845 15.8594 15.8594 15.6845 15.8594 15.4688V14.6875C15.8594 14.4717 15.6845 14.2969 15.4688 14.2969H14.6875C14.4717 14.2969 14.2969 14.4717 14.2969 14.6875V15.4688C14.2969 15.6845 14.4717 15.8594 14.6875 15.8594Z" fill="white"/>
<path d="M4.14062 10.7812C4.14062 10.997 4.31549 11.1719 4.53125 11.1719H9.60938V13.125C9.60938 13.3408 9.78424 13.5156 10 13.5156C10.2158 13.5156 10.3906 13.3408 10.3906 13.125V10.7812C10.3906 10.5655 10.2158 10.3906 10 10.3906H4.53125C4.31549 10.3906 4.14062 10.5655 4.14062 10.7812Z" fill="white"/>
<path d="M6.875 9.60938C7.09076 9.60938 7.26562 9.43451 7.26562 9.21875C7.26562 9.00299 7.09076 8.82812 6.875 8.82812H2.96875C2.75299 8.82812 2.57812 9.00299 2.57812 9.21875C2.57812 9.43451 2.75299 9.60938 2.96875 9.60938H6.875Z" fill="white"/>
<path d="M8.4375 9.60938H10C10.2158 9.60938 10.3906 9.43451 10.3906 9.21875C10.3906 9.00299 10.2158 8.82812 10 8.82812H8.4375C8.22174 8.82812 8.04688 9.00299 8.04688 9.21875C8.04688 9.43451 8.22174 9.60938 8.4375 9.60938Z" fill="white"/>
<path d="M8.4375 2.57812C8.22174 2.57812 8.04688 2.75299 8.04688 2.96875V6.875C8.04688 7.09076 8.22174 7.26562 8.4375 7.26562H11.1719V9.21875C11.1719 9.43451 11.3467 9.60938 11.5625 9.60938H13.125C13.3408 9.60938 13.5156 9.43451 13.5156 9.21875C13.5156 9.00299 13.3408 8.82812 13.125 8.82812H11.9531V6.875C11.9531 6.65924 11.7783 6.48438 11.5625 6.48438H8.82812V2.96875C8.82812 2.75299 8.65326 2.57812 8.4375 2.57812Z" fill="white"/>
<path d="M17.0312 8.82812H14.6875C14.4717 8.82812 14.2969 9.00299 14.2969 9.21875C14.2969 9.43451 14.4717 9.60938 14.6875 9.60938H17.0312C17.247 9.60938 17.4219 9.43451 17.4219 9.21875C17.4219 9.00299 17.247 8.82812 17.0312 8.82812Z" fill="white"/>
<path d="M17.0312 10.3906H13.125C12.9092 10.3906 12.7344 10.5655 12.7344 10.7812C12.7344 10.997 12.9092 11.1719 13.125 11.1719H17.0312C17.247 11.1719 17.4219 10.997 17.4219 10.7812C17.4219 10.5655 17.247 10.3906 17.0312 10.3906Z" fill="white"/>
<path d="M10 14.2969H8.4375C8.22174 14.2969 8.04688 14.4717 8.04688 14.6875V17.0312C8.04688 17.247 8.22174 17.4219 8.4375 17.4219C8.65326 17.4219 8.82812 17.247 8.82812 17.0312V15.0781H10C10.2158 15.0781 10.3906 14.9033 10.3906 14.6875C10.3906 14.4717 10.2158 14.2969 10 14.2969Z" fill="white"/>
<path d="M11.1719 16.6406H10C9.78424 16.6406 9.60938 16.8155 9.60938 17.0312C9.60938 17.247 9.78424 17.4219 10 17.4219H11.5625C11.7783 17.4219 11.9531 17.247 11.9531 17.0312V12.3438C11.9531 12.128 11.7783 11.9531 11.5625 11.9531C11.3467 11.9531 11.1719 12.128 11.1719 12.3438V16.6406Z" fill="white"/>
<path d="M11.5625 5.70312C11.7783 5.70312 11.9531 5.52826 11.9531 5.3125V2.96875C11.9531 2.75299 11.7783 2.57812 11.5625 2.57812C11.3467 2.57812 11.1719 2.75299 11.1719 2.96875V4.92188H10C9.78424 4.92188 9.60938 5.09674 9.60938 5.3125C9.60938 5.52826 9.78424 5.70312 10 5.70312H11.5625Z" fill="white"/>
</svg>
