<svg width="50" height="50" viewBox="0 0 50 50" fill="none" xmlns="http://www.w3.org/2000/svg">
<path d="M29.358 15.4087C29.2287 15.6174 29.1595 15.8633 29.1669 16.1206C29.1815 16.6398 29.5041 17.0954 29.9889 17.2816L36.1044 19.6301C36.2537 19.6875 36.4092 19.716 36.5645 19.716C36.7416 19.716 36.9185 19.6788 37.0852 19.6046C37.3981 19.4653 37.638 19.2126 37.7607 18.8929L40.1183 12.7538C40.3032 12.2722 40.1828 11.7297 39.8116 11.3718C39.6238 11.1906 39.3913 11.0753 39.1459 11.0317L36.1707 5.10821C35.4566 3.68674 34.0249 2.80371 32.4343 2.80371H18.5713C17.0366 2.80371 15.6284 3.64173 14.8963 4.99064L10.2707 13.5141C9.78534 14.4083 10.1102 15.545 10.9949 16.0479L18.2377 20.1647C18.5304 20.3312 18.8494 20.4102 19.1644 20.4102C19.8195 20.4102 20.457 20.0682 20.8035 19.4592L23.0029 15.5933C23.2029 15.2418 23.08 14.7946 22.7284 14.5945C22.3769 14.3946 21.9298 14.5173 21.7297 14.869L19.5303 18.7349C19.4166 18.9348 19.1613 19.0051 18.9613 18.8914L11.7186 14.7745C11.5225 14.663 11.4504 14.4111 11.558 14.2127L16.1836 5.68922C16.6593 4.81282 17.5742 4.26843 18.5712 4.26843H22.7916L25.3202 8.55832L23.4641 11.8207C23.2641 12.1723 23.387 12.6194 23.7386 12.8195C23.8528 12.8845 23.9772 12.9154 24.1001 12.9154C24.3547 12.9154 24.6024 12.7823 24.7373 12.545L26.1777 10.0132L29.358 15.4087ZM32.4343 4.26843C33.4677 4.26843 34.3979 4.84212 34.8618 5.76568L38.0521 12.1172C38.1693 12.3508 38.3957 12.4955 38.6399 12.518L36.4589 18.1974L30.8392 16.0392C30.9069 15.9632 30.9589 15.873 30.9903 15.7738C31.0534 15.5753 31.029 15.3594 30.9233 15.18L24.4918 4.26843H32.4343Z" fill="#292D34"/>
<path d="M21.7647 34.8596H17.2969C16.8924 34.8596 16.5645 35.1875 16.5645 35.5919C16.5645 35.9964 16.8924 36.3243 17.2969 36.3243H21.7647C21.9947 36.3243 22.1819 36.5115 22.1819 36.7415V45.1888C22.1819 45.4189 21.9947 45.606 21.7647 45.606H10.7293C9.7339 45.606 8.81982 45.063 8.34368 44.189L6.4121 40.6427L8.99734 36.3243H13.7886C14.1931 36.3243 14.521 35.9964 14.521 35.5919C14.521 35.1875 14.1931 34.8596 13.7886 34.8596H9.87422L13.0741 29.5147C13.3027 29.5168 13.5387 29.4584 13.7485 29.3363C14.2072 29.0694 14.4584 28.5571 14.3885 28.0313L13.5382 21.6313C13.443 20.9154 12.7833 20.4101 12.0672 20.5055L5.64263 21.3591C5.14346 21.4254 4.73402 21.7627 4.57417 22.2394C4.48794 22.4964 4.48306 22.7643 4.55229 23.0116L0.749871 28.4919C-0.15689 29.7989 -0.247508 31.4786 0.513367 32.8754L7.05746 44.8897C7.79031 46.2351 9.19732 47.0709 10.7294 47.0709H21.7647C22.8025 47.0709 23.6467 46.2266 23.6467 45.1889V36.7416C23.6466 35.7038 22.8024 34.8596 21.7647 34.8596ZM1.79969 32.1748C1.30539 31.2673 1.36427 30.176 1.95329 29.3268L6.00794 23.4828C6.15499 23.2708 6.17618 23.0044 6.0802 22.7785L12.1066 21.9778L12.8995 27.9454C12.8003 27.9222 12.6962 27.9198 12.5939 27.9395C12.3894 27.9791 12.2115 28.1038 12.1046 28.2824L5.59879 39.1496L1.79969 32.1748Z" fill="#292D34"/>
<path d="M49.2595 28.0537L43.7132 20.0173C43.1602 19.2162 42.0666 18.9696 41.2236 19.4562L33.9957 23.6271C33.5481 23.8854 33.2233 24.3221 33.1047 24.8251C32.986 25.3281 33.0814 25.8638 33.3664 26.2949L39.48 35.5446H32.9446C32.7966 35.3933 32.6089 35.2797 32.3972 35.2204C31.9682 35.1003 31.5235 35.217 31.2076 35.5331L26.4277 40.313C26.1971 40.5435 26.0702 40.85 26.0702 41.1761C26.0702 41.5021 26.1971 41.8087 26.4277 42.0392L31.226 46.8374C31.46 47.0714 31.7653 47.1964 32.0825 47.1964C32.1897 47.1964 32.2982 47.1821 32.4058 47.1529C32.6174 47.0956 32.8059 46.9838 32.9552 46.8339H39.6168C41.2004 46.8339 42.6293 45.9567 43.3457 44.5445L49.5473 32.3207C50.2414 30.9517 50.1312 29.3168 49.2595 28.0537ZM48.2408 31.6577L44.0832 39.8528L44.0257 39.766C43.8027 39.4285 43.3483 39.3357 43.011 39.5587C42.6735 39.7818 42.5807 40.2361 42.8038 40.5735L43.3206 41.3556L42.0391 43.8815C41.5736 44.799 40.6453 45.369 39.6164 45.369H32.5602C32.3609 45.369 32.1767 45.4495 32.0428 45.583L27.6357 41.1759L32.0214 36.7903C32.1556 36.9267 32.3417 37.0092 32.5437 37.0092H40.4479L40.8714 37.6501C41.0944 37.9876 41.5488 38.0803 41.8862 37.8573C42.2236 37.6343 42.3164 37.1799 42.0934 36.8426L34.5881 25.4872C34.5016 25.3564 34.5147 25.2268 34.5301 25.1614C34.5456 25.0959 34.5918 24.9742 34.7277 24.8958L41.9556 20.7248C42.1427 20.6169 42.385 20.6716 42.5076 20.8492L48.0539 28.8857C48.6204 29.7063 48.692 30.7685 48.2408 31.6577Z" fill="#292D34"/>
</svg>
