<svg width="512" height="512" viewBox="0 0 512 512" fill="none" xmlns="http://www.w3.org/2000/svg">
<g clip-path="url(#clip0)">
<path d="M511.896 158.061V428.864C511.896 459.903 486.644 485.155 455.605 485.155H56.2905C25.2516 485.154 0 459.902 0 428.864V148.493C0 117.454 25.2516 92.2029 56.2905 92.2029H282.616C287.897 92.2029 292.178 96.4835 292.178 101.765C292.178 107.047 287.897 111.327 282.616 111.327H56.2905C35.7966 111.327 19.1244 128.001 19.1244 148.493V176.845L237.891 283.085C249.372 288.66 262.546 288.67 274.034 283.113L419.654 212.68C424.408 210.381 430.126 212.371 432.426 217.124C434.725 221.879 432.736 227.596 427.981 229.896L282.362 300.329C265.958 308.264 246.699 308.622 229.537 300.288L19.1244 198.105V428.864C19.1244 449.358 35.7966 466.03 56.2905 466.03H455.605C476.099 466.03 492.772 449.358 492.772 428.864V158.061C492.772 152.779 497.052 148.499 502.334 148.499C507.615 148.499 511.896 152.779 511.896 158.061V158.061ZM149.358 322.273L56.1672 415.464C50.125 421.507 54.4875 431.788 62.9288 431.788C65.3756 431.788 67.8236 430.854 69.6903 428.987L162.881 335.796C166.616 332.062 166.616 326.008 162.881 322.273C159.147 318.54 153.092 318.54 149.358 322.273V322.273ZM349.016 322.273C345.281 326.008 345.281 332.062 349.016 335.796L442.207 428.987C444.073 430.854 446.521 431.788 448.968 431.788C457.407 431.788 461.773 421.508 455.73 415.464L362.539 322.273C358.803 318.54 352.749 318.54 349.016 322.273V322.273ZM334.279 195.768C358.859 168.114 365.833 157.777 385.685 148.862C390.502 146.699 392.654 141.04 390.49 136.222C388.327 131.405 382.671 129.252 377.85 131.416C355.943 141.254 345.362 154.513 336.697 164.261C337.085 118.895 374.11 82.1063 419.567 82.1063C424.848 82.1063 429.129 77.8256 429.129 72.5441V56.2352L487.071 102.292L429.13 148.35V132.042C429.13 126.761 424.849 122.48 419.568 122.48C414.286 122.48 410.005 126.761 410.005 132.042V168.166C410.005 176.158 419.267 180.621 425.517 175.651L508.39 109.778C513.204 105.951 513.202 98.6329 508.39 94.807L425.517 28.9341C419.255 23.9575 410.005 28.4379 410.005 36.4192V63.4249C358.23 68.2592 317.571 111.959 317.571 164.978V189.414C317.571 198.22 328.481 202.291 334.279 195.768Z" fill="#292D34"/>
</g>
<defs>
<clipPath id="clip0">
<rect width="512" height="512" fill="white"/>
</clipPath>
</defs>
</svg>
