<svg width="50" height="50" viewBox="0 0 50 50" fill="none" xmlns="http://www.w3.org/2000/svg">
<path d="M11.7188 28.0273C11.7188 25.6042 9.74736 23.6328 7.32422 23.6328C4.90107 23.6328 2.92969 25.6042 2.92969 28.0273C2.92969 30.4505 4.90107 32.4219 7.32422 32.4219C9.74736 32.4219 11.7188 30.4505 11.7188 28.0273ZM7.32422 29.4922C6.5165 29.4922 5.85938 28.8351 5.85938 28.0273C5.85938 27.2196 6.5165 26.5625 7.32422 26.5625C8.13193 26.5625 8.78906 27.2196 8.78906 28.0273C8.78906 28.8351 8.13193 29.4922 7.32422 29.4922Z" fill="#292D34"/>
<path d="M7.32422 32.4219C3.28564 32.4219 0 35.7075 0 39.7461V50H14.6484V39.7461C14.6484 35.7075 11.3628 32.4219 7.32422 32.4219ZM11.7188 47.0703H2.92969V39.7461C2.92969 37.3229 4.90107 35.3516 7.32422 35.3516C9.74736 35.3516 11.7188 37.3229 11.7188 39.7461V47.0703Z" fill="#292D34"/>
<path d="M47.0703 28.0273C47.0703 25.6042 45.0989 23.6328 42.6758 23.6328C40.2526 23.6328 38.2812 25.6042 38.2812 28.0273C38.2812 30.4505 40.2526 32.4219 42.6758 32.4219C45.0989 32.4219 47.0703 30.4505 47.0703 28.0273ZM42.6758 29.4922C41.8681 29.4922 41.2109 28.8351 41.2109 28.0273C41.2109 27.2196 41.8681 26.5625 42.6758 26.5625C43.4835 26.5625 44.1406 27.2196 44.1406 28.0273C44.1406 28.8351 43.4835 29.4922 42.6758 29.4922Z" fill="#292D34"/>
<path d="M42.6758 32.4219C38.6372 32.4219 35.3516 35.7075 35.3516 39.7461V50H50V39.7461C50 35.7075 46.7144 32.4219 42.6758 32.4219ZM47.0703 47.0703H38.2812V39.7461C38.2812 37.3229 40.2526 35.3516 42.6758 35.3516C45.0989 35.3516 47.0703 37.3229 47.0703 39.7461V47.0703Z" fill="#292D34"/>
<path d="M25 20.5078C30.654 20.5078 35.2539 15.9079 35.2539 10.2539C35.2539 4.5999 30.654 0 25 0C19.346 0 14.7461 4.5999 14.7461 10.2539C14.7461 15.9079 19.346 20.5078 25 20.5078ZM25 2.92969C29.0386 2.92969 32.3242 6.21533 32.3242 10.2539C32.3242 14.2925 29.0386 17.5781 25 17.5781C20.9614 17.5781 17.6758 14.2925 17.6758 10.2539C17.6758 6.21533 20.9614 2.92969 25 2.92969Z" fill="#292D34"/>
<path d="M30.9571 23.0259L28.8855 25.0975L30.3503 26.5623H19.6498L21.1146 25.0975L19.043 23.0259L14.0417 28.0271L19.043 33.0284L21.1146 30.9568L19.6498 29.492H30.3503L28.8855 30.9568L30.9571 33.0284L35.9583 28.0271L30.9571 23.0259Z" fill="#292D34"/>
<path d="M30.4303 8.36001L28.3588 6.28833L23.5351 11.112L21.6412 9.21802L19.5697 11.2897L23.5351 15.2551L30.4303 8.36001Z" fill="#292D34"/>
</svg>
