<svg width="478" height="478" viewBox="0 0 478 478" fill="none" xmlns="http://www.w3.org/2000/svg">
<g clip-path="url(#clip0)">
<path d="M409.598 153.596H324.265C314.839 153.596 307.198 161.237 307.198 170.663C307.198 180.089 314.839 187.73 324.265 187.73H409.598C419.024 187.73 426.665 195.371 426.665 204.797V426.664C426.665 436.09 419.024 443.731 409.598 443.731H68.2649C58.8389 443.731 51.1979 436.09 51.1979 426.664V204.796C51.1979 195.37 58.8389 187.729 68.2649 187.729H153.598C163.024 187.729 170.665 180.088 170.665 170.662C170.665 161.236 163.024 153.595 153.598 153.595H68.2649C39.9879 153.595 17.0649 176.518 17.0649 204.795V426.662C17.0649 454.939 39.9879 477.862 68.2649 477.862H409.598C437.875 477.862 460.798 454.939 460.798 426.662V204.796C460.798 176.519 437.875 153.596 409.598 153.596Z" fill="#9BB2C7"/>
<path d="M336.331 90.33L250.998 4.99701C244.334 -1.66599 233.53 -1.66599 226.866 4.99701L141.532 90.33C134.984 97.11 135.172 107.914 141.952 114.462C148.566 120.85 159.051 120.85 165.665 114.462L221.866 58.261V341.33C221.866 350.756 229.507 358.397 238.933 358.397C248.359 358.397 256 350.756 256 341.33V58.262L312.201 114.463C318.981 121.011 329.785 120.823 336.333 114.043C342.719 107.429 342.719 96.944 336.331 90.33Z" fill="#9BB2C7"/>
</g>
<defs>
<clipPath id="clip0">
<rect width="477.863" height="477.863" fill="white"/>
</clipPath>
</defs>
</svg>
