<svg width="50" height="50" viewBox="0 0 50 50" fill="none" xmlns="http://www.w3.org/2000/svg">
<g clip-path="url(#clip0)">
<path d="M32.2178 0.288773C31.9886 0.0473025 31.6742 -0.0976562 31.3485 -0.0976562H11.8435C8.24433 -0.0976562 5.27344 2.86141 5.27344 6.4602V43.3442C5.27344 46.9434 8.24433 49.9024 11.8435 49.9024H38.3168C41.916 49.9024 44.8869 46.9434 44.8869 43.3442V14.0568C44.8869 13.7429 44.7419 13.4411 44.5367 13.2115L32.2178 0.288773ZM32.568 4.16566L40.8169 12.825H35.4546C33.8604 12.825 32.568 11.5448 32.568 9.95066V4.16566ZM38.3168 47.487H11.8435C9.5852 47.487 7.68891 45.6151 7.68891 43.3442V6.4602C7.68891 4.2019 9.57299 2.31781 11.8435 2.31781H30.1526V9.95066C30.1526 12.8853 32.52 15.2405 35.4546 15.2405H42.4714V43.3442C42.4714 45.6151 40.5873 47.487 38.3168 47.487Z" fill="white"/>
<path d="M35.0197 39.1538H15.1405C14.4763 39.1538 13.9327 39.697 13.9327 40.3615C13.9327 41.0257 14.4763 41.5693 15.1405 41.5693H35.0319C35.696 41.5693 36.2396 41.0257 36.2396 40.3615C36.2396 39.697 35.696 39.1538 35.0197 39.1538Z" fill="white"/>
<path d="M18.8964 26.1584L23.8723 20.8079V33.9964C23.8723 34.6606 24.4159 35.2042 25.0801 35.2042C25.7446 35.2042 26.2878 34.6606 26.2878 33.9964V20.8079L31.2637 26.1584C31.5052 26.4117 31.8195 26.5448 32.1453 26.5448C32.4352 26.5448 32.7373 26.4361 32.9666 26.2186C33.4499 25.7597 33.4862 24.9987 33.0272 24.5158L25.9498 16.9191C25.7202 16.6777 25.4062 16.5327 25.0683 16.5327C24.7299 16.5327 24.4159 16.6777 24.1867 16.9191L17.1093 24.5158C16.6504 24.9987 16.6866 25.7716 17.1695 26.2186C17.6769 26.6775 18.4375 26.6413 18.8964 26.1584Z" fill="white"/>
</g>
<defs>
<clipPath id="clip0">
<rect width="50" height="50" fill="white"/>
</clipPath>
</defs>
</svg>
